G75*
G70*
%OFA0B0*%
%FSLAX24Y24*%
%IPPOS*%
%LPD*%
%AMOC8*
5,1,8,0,0,1.08239X$1,22.5*
%
%ADD10C,0.0000*%
%ADD11C,0.0080*%
%ADD12C,0.0120*%
%ADD13C,0.0060*%
%ADD14C,0.0040*%
%ADD15C,0.0030*%
%ADD16C,0.0020*%
%ADD17C,0.0050*%
%ADD18C,0.0070*%
%ADD19R,0.1000X0.0250*%
%ADD20R,0.0787X0.0236*%
%ADD21R,0.0340X0.0300*%
D10*
X000100Y006102D02*
X007187Y006102D01*
X008171Y007480D01*
X018013Y007480D01*
X018998Y006102D01*
X070966Y006102D01*
X070966Y056496D01*
X000100Y056496D01*
X000100Y006102D01*
X000454Y007087D02*
X000456Y007137D01*
X000462Y007187D01*
X000472Y007236D01*
X000486Y007284D01*
X000503Y007331D01*
X000524Y007376D01*
X000549Y007420D01*
X000577Y007461D01*
X000609Y007500D01*
X000643Y007537D01*
X000680Y007571D01*
X000720Y007601D01*
X000762Y007628D01*
X000806Y007652D01*
X000852Y007673D01*
X000899Y007689D01*
X000947Y007702D01*
X000997Y007711D01*
X001046Y007716D01*
X001097Y007717D01*
X001147Y007714D01*
X001196Y007707D01*
X001245Y007696D01*
X001293Y007681D01*
X001339Y007663D01*
X001384Y007641D01*
X001427Y007615D01*
X001468Y007586D01*
X001507Y007554D01*
X001543Y007519D01*
X001575Y007481D01*
X001605Y007441D01*
X001632Y007398D01*
X001655Y007354D01*
X001674Y007308D01*
X001690Y007260D01*
X001702Y007211D01*
X001710Y007162D01*
X001714Y007112D01*
X001714Y007062D01*
X001710Y007012D01*
X001702Y006963D01*
X001690Y006914D01*
X001674Y006866D01*
X001655Y006820D01*
X001632Y006776D01*
X001605Y006733D01*
X001575Y006693D01*
X001543Y006655D01*
X001507Y006620D01*
X001468Y006588D01*
X001427Y006559D01*
X001384Y006533D01*
X001339Y006511D01*
X001293Y006493D01*
X001245Y006478D01*
X001196Y006467D01*
X001147Y006460D01*
X001097Y006457D01*
X001046Y006458D01*
X000997Y006463D01*
X000947Y006472D01*
X000899Y006485D01*
X000852Y006501D01*
X000806Y006522D01*
X000762Y006546D01*
X000720Y006573D01*
X000680Y006603D01*
X000643Y006637D01*
X000609Y006674D01*
X000577Y006713D01*
X000549Y006754D01*
X000524Y006798D01*
X000503Y006843D01*
X000486Y006890D01*
X000472Y006938D01*
X000462Y006987D01*
X000456Y007037D01*
X000454Y007087D01*
X032541Y012205D02*
X032543Y012255D01*
X032549Y012305D01*
X032559Y012354D01*
X032573Y012402D01*
X032590Y012449D01*
X032611Y012494D01*
X032636Y012538D01*
X032664Y012579D01*
X032696Y012618D01*
X032730Y012655D01*
X032767Y012689D01*
X032807Y012719D01*
X032849Y012746D01*
X032893Y012770D01*
X032939Y012791D01*
X032986Y012807D01*
X033034Y012820D01*
X033084Y012829D01*
X033133Y012834D01*
X033184Y012835D01*
X033234Y012832D01*
X033283Y012825D01*
X033332Y012814D01*
X033380Y012799D01*
X033426Y012781D01*
X033471Y012759D01*
X033514Y012733D01*
X033555Y012704D01*
X033594Y012672D01*
X033630Y012637D01*
X033662Y012599D01*
X033692Y012559D01*
X033719Y012516D01*
X033742Y012472D01*
X033761Y012426D01*
X033777Y012378D01*
X033789Y012329D01*
X033797Y012280D01*
X033801Y012230D01*
X033801Y012180D01*
X033797Y012130D01*
X033789Y012081D01*
X033777Y012032D01*
X033761Y011984D01*
X033742Y011938D01*
X033719Y011894D01*
X033692Y011851D01*
X033662Y011811D01*
X033630Y011773D01*
X033594Y011738D01*
X033555Y011706D01*
X033514Y011677D01*
X033471Y011651D01*
X033426Y011629D01*
X033380Y011611D01*
X033332Y011596D01*
X033283Y011585D01*
X033234Y011578D01*
X033184Y011575D01*
X033133Y011576D01*
X033084Y011581D01*
X033034Y011590D01*
X032986Y011603D01*
X032939Y011619D01*
X032893Y011640D01*
X032849Y011664D01*
X032807Y011691D01*
X032767Y011721D01*
X032730Y011755D01*
X032696Y011792D01*
X032664Y011831D01*
X032636Y011872D01*
X032611Y011916D01*
X032590Y011961D01*
X032573Y012008D01*
X032559Y012056D01*
X032549Y012105D01*
X032543Y012155D01*
X032541Y012205D01*
X045730Y019291D02*
X045732Y019341D01*
X045738Y019391D01*
X045748Y019440D01*
X045762Y019488D01*
X045779Y019535D01*
X045800Y019580D01*
X045825Y019624D01*
X045853Y019665D01*
X045885Y019704D01*
X045919Y019741D01*
X045956Y019775D01*
X045996Y019805D01*
X046038Y019832D01*
X046082Y019856D01*
X046128Y019877D01*
X046175Y019893D01*
X046223Y019906D01*
X046273Y019915D01*
X046322Y019920D01*
X046373Y019921D01*
X046423Y019918D01*
X046472Y019911D01*
X046521Y019900D01*
X046569Y019885D01*
X046615Y019867D01*
X046660Y019845D01*
X046703Y019819D01*
X046744Y019790D01*
X046783Y019758D01*
X046819Y019723D01*
X046851Y019685D01*
X046881Y019645D01*
X046908Y019602D01*
X046931Y019558D01*
X046950Y019512D01*
X046966Y019464D01*
X046978Y019415D01*
X046986Y019366D01*
X046990Y019316D01*
X046990Y019266D01*
X046986Y019216D01*
X046978Y019167D01*
X046966Y019118D01*
X046950Y019070D01*
X046931Y019024D01*
X046908Y018980D01*
X046881Y018937D01*
X046851Y018897D01*
X046819Y018859D01*
X046783Y018824D01*
X046744Y018792D01*
X046703Y018763D01*
X046660Y018737D01*
X046615Y018715D01*
X046569Y018697D01*
X046521Y018682D01*
X046472Y018671D01*
X046423Y018664D01*
X046373Y018661D01*
X046322Y018662D01*
X046273Y018667D01*
X046223Y018676D01*
X046175Y018689D01*
X046128Y018705D01*
X046082Y018726D01*
X046038Y018750D01*
X045996Y018777D01*
X045956Y018807D01*
X045919Y018841D01*
X045885Y018878D01*
X045853Y018917D01*
X045825Y018958D01*
X045800Y019002D01*
X045779Y019047D01*
X045762Y019094D01*
X045748Y019142D01*
X045738Y019191D01*
X045732Y019241D01*
X045730Y019291D01*
X046517Y031102D02*
X046519Y031152D01*
X046525Y031202D01*
X046535Y031251D01*
X046549Y031299D01*
X046566Y031346D01*
X046587Y031391D01*
X046612Y031435D01*
X046640Y031476D01*
X046672Y031515D01*
X046706Y031552D01*
X046743Y031586D01*
X046783Y031616D01*
X046825Y031643D01*
X046869Y031667D01*
X046915Y031688D01*
X046962Y031704D01*
X047010Y031717D01*
X047060Y031726D01*
X047109Y031731D01*
X047160Y031732D01*
X047210Y031729D01*
X047259Y031722D01*
X047308Y031711D01*
X047356Y031696D01*
X047402Y031678D01*
X047447Y031656D01*
X047490Y031630D01*
X047531Y031601D01*
X047570Y031569D01*
X047606Y031534D01*
X047638Y031496D01*
X047668Y031456D01*
X047695Y031413D01*
X047718Y031369D01*
X047737Y031323D01*
X047753Y031275D01*
X047765Y031226D01*
X047773Y031177D01*
X047777Y031127D01*
X047777Y031077D01*
X047773Y031027D01*
X047765Y030978D01*
X047753Y030929D01*
X047737Y030881D01*
X047718Y030835D01*
X047695Y030791D01*
X047668Y030748D01*
X047638Y030708D01*
X047606Y030670D01*
X047570Y030635D01*
X047531Y030603D01*
X047490Y030574D01*
X047447Y030548D01*
X047402Y030526D01*
X047356Y030508D01*
X047308Y030493D01*
X047259Y030482D01*
X047210Y030475D01*
X047160Y030472D01*
X047109Y030473D01*
X047060Y030478D01*
X047010Y030487D01*
X046962Y030500D01*
X046915Y030516D01*
X046869Y030537D01*
X046825Y030561D01*
X046783Y030588D01*
X046743Y030618D01*
X046706Y030652D01*
X046672Y030689D01*
X046640Y030728D01*
X046612Y030769D01*
X046587Y030813D01*
X046566Y030858D01*
X046549Y030905D01*
X046535Y030953D01*
X046525Y031002D01*
X046519Y031052D01*
X046517Y031102D01*
X034116Y037598D02*
X034118Y037648D01*
X034124Y037698D01*
X034134Y037747D01*
X034148Y037795D01*
X034165Y037842D01*
X034186Y037887D01*
X034211Y037931D01*
X034239Y037972D01*
X034271Y038011D01*
X034305Y038048D01*
X034342Y038082D01*
X034382Y038112D01*
X034424Y038139D01*
X034468Y038163D01*
X034514Y038184D01*
X034561Y038200D01*
X034609Y038213D01*
X034659Y038222D01*
X034708Y038227D01*
X034759Y038228D01*
X034809Y038225D01*
X034858Y038218D01*
X034907Y038207D01*
X034955Y038192D01*
X035001Y038174D01*
X035046Y038152D01*
X035089Y038126D01*
X035130Y038097D01*
X035169Y038065D01*
X035205Y038030D01*
X035237Y037992D01*
X035267Y037952D01*
X035294Y037909D01*
X035317Y037865D01*
X035336Y037819D01*
X035352Y037771D01*
X035364Y037722D01*
X035372Y037673D01*
X035376Y037623D01*
X035376Y037573D01*
X035372Y037523D01*
X035364Y037474D01*
X035352Y037425D01*
X035336Y037377D01*
X035317Y037331D01*
X035294Y037287D01*
X035267Y037244D01*
X035237Y037204D01*
X035205Y037166D01*
X035169Y037131D01*
X035130Y037099D01*
X035089Y037070D01*
X035046Y037044D01*
X035001Y037022D01*
X034955Y037004D01*
X034907Y036989D01*
X034858Y036978D01*
X034809Y036971D01*
X034759Y036968D01*
X034708Y036969D01*
X034659Y036974D01*
X034609Y036983D01*
X034561Y036996D01*
X034514Y037012D01*
X034468Y037033D01*
X034424Y037057D01*
X034382Y037084D01*
X034342Y037114D01*
X034305Y037148D01*
X034271Y037185D01*
X034239Y037224D01*
X034211Y037265D01*
X034186Y037309D01*
X034165Y037354D01*
X034148Y037401D01*
X034134Y037449D01*
X034124Y037498D01*
X034118Y037548D01*
X034116Y037598D01*
X058131Y037598D02*
X058133Y037648D01*
X058139Y037698D01*
X058149Y037747D01*
X058163Y037795D01*
X058180Y037842D01*
X058201Y037887D01*
X058226Y037931D01*
X058254Y037972D01*
X058286Y038011D01*
X058320Y038048D01*
X058357Y038082D01*
X058397Y038112D01*
X058439Y038139D01*
X058483Y038163D01*
X058529Y038184D01*
X058576Y038200D01*
X058624Y038213D01*
X058674Y038222D01*
X058723Y038227D01*
X058774Y038228D01*
X058824Y038225D01*
X058873Y038218D01*
X058922Y038207D01*
X058970Y038192D01*
X059016Y038174D01*
X059061Y038152D01*
X059104Y038126D01*
X059145Y038097D01*
X059184Y038065D01*
X059220Y038030D01*
X059252Y037992D01*
X059282Y037952D01*
X059309Y037909D01*
X059332Y037865D01*
X059351Y037819D01*
X059367Y037771D01*
X059379Y037722D01*
X059387Y037673D01*
X059391Y037623D01*
X059391Y037573D01*
X059387Y037523D01*
X059379Y037474D01*
X059367Y037425D01*
X059351Y037377D01*
X059332Y037331D01*
X059309Y037287D01*
X059282Y037244D01*
X059252Y037204D01*
X059220Y037166D01*
X059184Y037131D01*
X059145Y037099D01*
X059104Y037070D01*
X059061Y037044D01*
X059016Y037022D01*
X058970Y037004D01*
X058922Y036989D01*
X058873Y036978D01*
X058824Y036971D01*
X058774Y036968D01*
X058723Y036969D01*
X058674Y036974D01*
X058624Y036983D01*
X058576Y036996D01*
X058529Y037012D01*
X058483Y037033D01*
X058439Y037057D01*
X058397Y037084D01*
X058357Y037114D01*
X058320Y037148D01*
X058286Y037185D01*
X058254Y037224D01*
X058226Y037265D01*
X058201Y037309D01*
X058180Y037354D01*
X058163Y037401D01*
X058149Y037449D01*
X058139Y037498D01*
X058133Y037548D01*
X058131Y037598D01*
X069352Y055512D02*
X069354Y055562D01*
X069360Y055612D01*
X069370Y055661D01*
X069384Y055709D01*
X069401Y055756D01*
X069422Y055801D01*
X069447Y055845D01*
X069475Y055886D01*
X069507Y055925D01*
X069541Y055962D01*
X069578Y055996D01*
X069618Y056026D01*
X069660Y056053D01*
X069704Y056077D01*
X069750Y056098D01*
X069797Y056114D01*
X069845Y056127D01*
X069895Y056136D01*
X069944Y056141D01*
X069995Y056142D01*
X070045Y056139D01*
X070094Y056132D01*
X070143Y056121D01*
X070191Y056106D01*
X070237Y056088D01*
X070282Y056066D01*
X070325Y056040D01*
X070366Y056011D01*
X070405Y055979D01*
X070441Y055944D01*
X070473Y055906D01*
X070503Y055866D01*
X070530Y055823D01*
X070553Y055779D01*
X070572Y055733D01*
X070588Y055685D01*
X070600Y055636D01*
X070608Y055587D01*
X070612Y055537D01*
X070612Y055487D01*
X070608Y055437D01*
X070600Y055388D01*
X070588Y055339D01*
X070572Y055291D01*
X070553Y055245D01*
X070530Y055201D01*
X070503Y055158D01*
X070473Y055118D01*
X070441Y055080D01*
X070405Y055045D01*
X070366Y055013D01*
X070325Y054984D01*
X070282Y054958D01*
X070237Y054936D01*
X070191Y054918D01*
X070143Y054903D01*
X070094Y054892D01*
X070045Y054885D01*
X069995Y054882D01*
X069944Y054883D01*
X069895Y054888D01*
X069845Y054897D01*
X069797Y054910D01*
X069750Y054926D01*
X069704Y054947D01*
X069660Y054971D01*
X069618Y054998D01*
X069578Y055028D01*
X069541Y055062D01*
X069507Y055099D01*
X069475Y055138D01*
X069447Y055179D01*
X069422Y055223D01*
X069401Y055268D01*
X069384Y055315D01*
X069370Y055363D01*
X069360Y055412D01*
X069354Y055462D01*
X069352Y055512D01*
X069352Y007087D02*
X069354Y007137D01*
X069360Y007187D01*
X069370Y007236D01*
X069384Y007284D01*
X069401Y007331D01*
X069422Y007376D01*
X069447Y007420D01*
X069475Y007461D01*
X069507Y007500D01*
X069541Y007537D01*
X069578Y007571D01*
X069618Y007601D01*
X069660Y007628D01*
X069704Y007652D01*
X069750Y007673D01*
X069797Y007689D01*
X069845Y007702D01*
X069895Y007711D01*
X069944Y007716D01*
X069995Y007717D01*
X070045Y007714D01*
X070094Y007707D01*
X070143Y007696D01*
X070191Y007681D01*
X070237Y007663D01*
X070282Y007641D01*
X070325Y007615D01*
X070366Y007586D01*
X070405Y007554D01*
X070441Y007519D01*
X070473Y007481D01*
X070503Y007441D01*
X070530Y007398D01*
X070553Y007354D01*
X070572Y007308D01*
X070588Y007260D01*
X070600Y007211D01*
X070608Y007162D01*
X070612Y007112D01*
X070612Y007062D01*
X070608Y007012D01*
X070600Y006963D01*
X070588Y006914D01*
X070572Y006866D01*
X070553Y006820D01*
X070530Y006776D01*
X070503Y006733D01*
X070473Y006693D01*
X070441Y006655D01*
X070405Y006620D01*
X070366Y006588D01*
X070325Y006559D01*
X070282Y006533D01*
X070237Y006511D01*
X070191Y006493D01*
X070143Y006478D01*
X070094Y006467D01*
X070045Y006460D01*
X069995Y006457D01*
X069944Y006458D01*
X069895Y006463D01*
X069845Y006472D01*
X069797Y006485D01*
X069750Y006501D01*
X069704Y006522D01*
X069660Y006546D01*
X069618Y006573D01*
X069578Y006603D01*
X069541Y006637D01*
X069507Y006674D01*
X069475Y006713D01*
X069447Y006754D01*
X069422Y006798D01*
X069401Y006843D01*
X069384Y006890D01*
X069370Y006938D01*
X069360Y006987D01*
X069354Y007037D01*
X069352Y007087D01*
X000454Y037598D02*
X000456Y037648D01*
X000462Y037698D01*
X000472Y037747D01*
X000486Y037795D01*
X000503Y037842D01*
X000524Y037887D01*
X000549Y037931D01*
X000577Y037972D01*
X000609Y038011D01*
X000643Y038048D01*
X000680Y038082D01*
X000720Y038112D01*
X000762Y038139D01*
X000806Y038163D01*
X000852Y038184D01*
X000899Y038200D01*
X000947Y038213D01*
X000997Y038222D01*
X001046Y038227D01*
X001097Y038228D01*
X001147Y038225D01*
X001196Y038218D01*
X001245Y038207D01*
X001293Y038192D01*
X001339Y038174D01*
X001384Y038152D01*
X001427Y038126D01*
X001468Y038097D01*
X001507Y038065D01*
X001543Y038030D01*
X001575Y037992D01*
X001605Y037952D01*
X001632Y037909D01*
X001655Y037865D01*
X001674Y037819D01*
X001690Y037771D01*
X001702Y037722D01*
X001710Y037673D01*
X001714Y037623D01*
X001714Y037573D01*
X001710Y037523D01*
X001702Y037474D01*
X001690Y037425D01*
X001674Y037377D01*
X001655Y037331D01*
X001632Y037287D01*
X001605Y037244D01*
X001575Y037204D01*
X001543Y037166D01*
X001507Y037131D01*
X001468Y037099D01*
X001427Y037070D01*
X001384Y037044D01*
X001339Y037022D01*
X001293Y037004D01*
X001245Y036989D01*
X001196Y036978D01*
X001147Y036971D01*
X001097Y036968D01*
X001046Y036969D01*
X000997Y036974D01*
X000947Y036983D01*
X000899Y036996D01*
X000852Y037012D01*
X000806Y037033D01*
X000762Y037057D01*
X000720Y037084D01*
X000680Y037114D01*
X000643Y037148D01*
X000609Y037185D01*
X000577Y037224D01*
X000549Y037265D01*
X000524Y037309D01*
X000503Y037354D01*
X000486Y037401D01*
X000472Y037449D01*
X000462Y037498D01*
X000456Y037548D01*
X000454Y037598D01*
X000454Y048819D02*
X000456Y048869D01*
X000462Y048919D01*
X000472Y048968D01*
X000486Y049016D01*
X000503Y049063D01*
X000524Y049108D01*
X000549Y049152D01*
X000577Y049193D01*
X000609Y049232D01*
X000643Y049269D01*
X000680Y049303D01*
X000720Y049333D01*
X000762Y049360D01*
X000806Y049384D01*
X000852Y049405D01*
X000899Y049421D01*
X000947Y049434D01*
X000997Y049443D01*
X001046Y049448D01*
X001097Y049449D01*
X001147Y049446D01*
X001196Y049439D01*
X001245Y049428D01*
X001293Y049413D01*
X001339Y049395D01*
X001384Y049373D01*
X001427Y049347D01*
X001468Y049318D01*
X001507Y049286D01*
X001543Y049251D01*
X001575Y049213D01*
X001605Y049173D01*
X001632Y049130D01*
X001655Y049086D01*
X001674Y049040D01*
X001690Y048992D01*
X001702Y048943D01*
X001710Y048894D01*
X001714Y048844D01*
X001714Y048794D01*
X001710Y048744D01*
X001702Y048695D01*
X001690Y048646D01*
X001674Y048598D01*
X001655Y048552D01*
X001632Y048508D01*
X001605Y048465D01*
X001575Y048425D01*
X001543Y048387D01*
X001507Y048352D01*
X001468Y048320D01*
X001427Y048291D01*
X001384Y048265D01*
X001339Y048243D01*
X001293Y048225D01*
X001245Y048210D01*
X001196Y048199D01*
X001147Y048192D01*
X001097Y048189D01*
X001046Y048190D01*
X000997Y048195D01*
X000947Y048204D01*
X000899Y048217D01*
X000852Y048233D01*
X000806Y048254D01*
X000762Y048278D01*
X000720Y048305D01*
X000680Y048335D01*
X000643Y048369D01*
X000609Y048406D01*
X000577Y048445D01*
X000549Y048486D01*
X000524Y048530D01*
X000503Y048575D01*
X000486Y048622D01*
X000472Y048670D01*
X000462Y048719D01*
X000456Y048769D01*
X000454Y048819D01*
X000454Y055512D02*
X000456Y055562D01*
X000462Y055612D01*
X000472Y055661D01*
X000486Y055709D01*
X000503Y055756D01*
X000524Y055801D01*
X000549Y055845D01*
X000577Y055886D01*
X000609Y055925D01*
X000643Y055962D01*
X000680Y055996D01*
X000720Y056026D01*
X000762Y056053D01*
X000806Y056077D01*
X000852Y056098D01*
X000899Y056114D01*
X000947Y056127D01*
X000997Y056136D01*
X001046Y056141D01*
X001097Y056142D01*
X001147Y056139D01*
X001196Y056132D01*
X001245Y056121D01*
X001293Y056106D01*
X001339Y056088D01*
X001384Y056066D01*
X001427Y056040D01*
X001468Y056011D01*
X001507Y055979D01*
X001543Y055944D01*
X001575Y055906D01*
X001605Y055866D01*
X001632Y055823D01*
X001655Y055779D01*
X001674Y055733D01*
X001690Y055685D01*
X001702Y055636D01*
X001710Y055587D01*
X001714Y055537D01*
X001714Y055487D01*
X001710Y055437D01*
X001702Y055388D01*
X001690Y055339D01*
X001674Y055291D01*
X001655Y055245D01*
X001632Y055201D01*
X001605Y055158D01*
X001575Y055118D01*
X001543Y055080D01*
X001507Y055045D01*
X001468Y055013D01*
X001427Y054984D01*
X001384Y054958D01*
X001339Y054936D01*
X001293Y054918D01*
X001245Y054903D01*
X001196Y054892D01*
X001147Y054885D01*
X001097Y054882D01*
X001046Y054883D01*
X000997Y054888D01*
X000947Y054897D01*
X000899Y054910D01*
X000852Y054926D01*
X000806Y054947D01*
X000762Y054971D01*
X000720Y054998D01*
X000680Y055028D01*
X000643Y055062D01*
X000609Y055099D01*
X000577Y055138D01*
X000549Y055179D01*
X000524Y055223D01*
X000503Y055268D01*
X000486Y055315D01*
X000472Y055363D01*
X000462Y055412D01*
X000456Y055462D01*
X000454Y055512D01*
D11*
X016085Y051638D02*
X016085Y051024D01*
X016085Y051485D02*
X016699Y051485D01*
X016699Y051638D02*
X016699Y051024D01*
X016699Y051638D02*
X016392Y051945D01*
X016085Y051638D01*
X017223Y049977D02*
X017530Y049977D01*
X017683Y049823D01*
X017069Y049209D01*
X017223Y049056D01*
X017530Y049056D01*
X017683Y049209D01*
X017683Y049823D01*
X017223Y049977D02*
X017069Y049823D01*
X017069Y049209D01*
X018250Y051024D02*
X018711Y051024D01*
X018864Y051178D01*
X018864Y051331D01*
X018711Y051485D01*
X018250Y051485D01*
X018250Y051945D02*
X018250Y051024D01*
X018711Y051485D02*
X018864Y051638D01*
X018864Y051792D01*
X018711Y051945D01*
X018250Y051945D01*
X020219Y051638D02*
X020219Y051024D01*
X020219Y051485D02*
X020833Y051485D01*
X020833Y051638D02*
X020833Y051024D01*
X020833Y051638D02*
X020526Y051945D01*
X020219Y051638D01*
X022187Y051485D02*
X022648Y051485D01*
X022801Y051331D01*
X022801Y051178D01*
X022648Y051024D01*
X022187Y051024D01*
X022187Y051945D01*
X022648Y051945D01*
X022801Y051792D01*
X022801Y051638D01*
X022648Y051485D01*
X024156Y051485D02*
X024770Y051485D01*
X024770Y051638D02*
X024770Y051024D01*
X024770Y051638D02*
X024463Y051945D01*
X024156Y051638D01*
X024156Y051024D01*
X025293Y049977D02*
X025140Y049823D01*
X025293Y049977D02*
X025600Y049977D01*
X025754Y049823D01*
X025754Y049670D01*
X025140Y049056D01*
X025754Y049056D01*
X026321Y051024D02*
X026781Y051024D01*
X026935Y051178D01*
X026935Y051331D01*
X026781Y051485D01*
X026321Y051485D01*
X026321Y051945D02*
X026321Y051024D01*
X026781Y051485D02*
X026935Y051638D01*
X026935Y051792D01*
X026781Y051945D01*
X026321Y051945D01*
X028290Y051638D02*
X028290Y051024D01*
X028290Y051485D02*
X028903Y051485D01*
X028903Y051638D02*
X028903Y051024D01*
X028903Y051638D02*
X028597Y051945D01*
X028290Y051638D01*
X030258Y051485D02*
X030719Y051485D01*
X030872Y051331D01*
X030872Y051178D01*
X030719Y051024D01*
X030258Y051024D01*
X030258Y051945D01*
X030719Y051945D01*
X030872Y051792D01*
X030872Y051638D01*
X030719Y051485D01*
X032227Y051485D02*
X032840Y051485D01*
X032840Y051638D02*
X032840Y051024D01*
X032227Y051024D02*
X032227Y051638D01*
X032534Y051945D01*
X032840Y051638D01*
X034392Y051485D02*
X034852Y051485D01*
X035006Y051331D01*
X035006Y051178D01*
X034852Y051024D01*
X034392Y051024D01*
X034392Y051945D01*
X034852Y051945D01*
X035006Y051792D01*
X035006Y051638D01*
X034852Y051485D01*
X036360Y051485D02*
X036974Y051485D01*
X036974Y051638D02*
X036974Y051024D01*
X036360Y051024D02*
X036360Y051638D01*
X036667Y051945D01*
X036974Y051638D01*
X038329Y051485D02*
X038789Y051485D01*
X038943Y051331D01*
X038943Y051178D01*
X038789Y051024D01*
X038329Y051024D01*
X038329Y051945D01*
X038789Y051945D01*
X038943Y051792D01*
X038943Y051638D01*
X038789Y051485D01*
X037959Y049977D02*
X037345Y049977D01*
X037345Y049516D01*
X037652Y049670D01*
X037805Y049670D01*
X037959Y049516D01*
X037959Y049209D01*
X037805Y049056D01*
X037498Y049056D01*
X037345Y049209D01*
X033825Y049516D02*
X033211Y049516D01*
X033671Y049977D01*
X033671Y049056D01*
X029888Y049209D02*
X029734Y049056D01*
X029427Y049056D01*
X029274Y049209D01*
X029581Y049516D02*
X029734Y049516D01*
X029888Y049363D01*
X029888Y049209D01*
X029734Y049516D02*
X029888Y049670D01*
X029888Y049823D01*
X029734Y049977D01*
X029427Y049977D01*
X029274Y049823D01*
X021817Y049056D02*
X021203Y049056D01*
X021510Y049056D02*
X021510Y049977D01*
X021203Y049670D01*
X047171Y051705D02*
X047324Y051551D01*
X047171Y051705D02*
X047171Y052012D01*
X047324Y052165D01*
X047478Y052165D01*
X048091Y051551D01*
X048091Y052165D01*
X047631Y052472D02*
X047631Y053086D01*
X047785Y053393D02*
X047171Y053393D01*
X047171Y052933D02*
X047631Y052472D01*
X048091Y052933D02*
X047171Y052933D01*
X047785Y053393D02*
X048091Y053700D01*
X047785Y054007D01*
X047171Y054007D01*
X047631Y051244D02*
X047631Y050631D01*
X047324Y050937D02*
X047938Y050937D01*
X053667Y051178D02*
X053820Y051024D01*
X054434Y051024D01*
X054588Y051178D01*
X054588Y051485D01*
X054434Y051638D01*
X054127Y051638D01*
X054127Y051331D01*
X053820Y051638D02*
X053667Y051485D01*
X053667Y051178D01*
X053667Y051945D02*
X054588Y052559D01*
X053667Y052559D01*
X053667Y052866D02*
X053667Y053326D01*
X053820Y053480D01*
X054434Y053480D01*
X054588Y053326D01*
X054588Y052866D01*
X053667Y052866D01*
X053667Y051945D02*
X054588Y051945D01*
X064361Y022967D02*
X064361Y020607D01*
X066941Y020607D01*
X066941Y022967D01*
X063261Y012067D02*
X063261Y009311D01*
X062828Y008878D01*
X060506Y008878D02*
X060072Y009311D01*
X060072Y012067D01*
X052541Y011931D02*
X052344Y011931D01*
X049628Y011931D01*
X052344Y011931D02*
X052344Y008541D01*
X049628Y008541D01*
X052344Y008541D02*
X052541Y008541D01*
X041655Y014154D02*
X038112Y014154D01*
X037679Y014587D01*
X037679Y017697D02*
X038112Y018130D01*
X041655Y018130D01*
D12*
X037453Y023187D02*
X037020Y023029D01*
X037237Y023108D02*
X036764Y024406D01*
X036548Y024327D02*
X036981Y024485D01*
X037413Y024642D02*
X038278Y024957D01*
X037846Y024800D02*
X038318Y023502D01*
X039026Y024249D02*
X039675Y024486D01*
X039813Y024781D01*
X039655Y025213D01*
X039360Y025351D01*
X038711Y025115D01*
X039183Y023817D01*
X039459Y024407D02*
X040049Y024132D01*
X040403Y024505D02*
X040698Y024368D01*
X041130Y024525D01*
X041268Y024820D01*
X040953Y025686D01*
X040658Y025823D01*
X040225Y025666D01*
X040088Y025371D01*
X040403Y024505D01*
X041779Y024762D02*
X041307Y026059D01*
X042644Y025076D01*
X042172Y026374D01*
X043981Y026788D02*
X044060Y026572D01*
X044355Y026434D01*
X044788Y026591D01*
X045083Y026454D01*
X045162Y026238D01*
X045024Y025943D01*
X044591Y025785D01*
X044296Y025923D01*
X043981Y026788D02*
X044119Y027083D01*
X044552Y027240D01*
X044847Y027103D01*
X045200Y027477D02*
X045633Y027634D01*
X045417Y027555D02*
X045889Y026257D01*
X045673Y026179D02*
X046105Y026336D01*
X046538Y026494D02*
X046931Y028106D01*
X046066Y027792D02*
X047403Y026809D01*
X036430Y023305D02*
X036115Y024170D01*
X035250Y023855D02*
X035565Y022990D01*
X036155Y022715D01*
X036430Y023305D01*
X035054Y023049D02*
X034916Y022753D01*
X034267Y022517D01*
X034425Y022085D02*
X033952Y023383D01*
X034601Y023619D01*
X034896Y023481D01*
X035054Y023049D01*
X034700Y022675D02*
X035290Y022400D01*
X033992Y021927D02*
X033127Y021612D01*
X032654Y022910D01*
X033520Y023225D01*
X033323Y022419D02*
X032890Y022261D01*
X032537Y021887D02*
X032615Y021671D01*
X032478Y021376D01*
X032045Y021219D01*
X031750Y021356D01*
X031809Y021868D02*
X032242Y022025D01*
X032537Y021887D01*
X032300Y022536D02*
X032005Y022674D01*
X031573Y022517D01*
X031435Y022221D01*
X031514Y022005D01*
X031809Y021868D01*
X032714Y050257D02*
X032714Y050717D01*
X032714Y050257D02*
X034095Y050257D01*
X034095Y050717D01*
X036848Y050717D02*
X036848Y050257D01*
X038229Y050257D01*
X038229Y050717D01*
X030158Y050717D02*
X030158Y050257D01*
X028777Y050257D01*
X028777Y050717D01*
X026024Y050717D02*
X026024Y050257D01*
X024643Y050257D01*
X024643Y050717D01*
X022087Y050717D02*
X022087Y050257D01*
X020706Y050257D01*
X020706Y050717D01*
X017953Y050717D02*
X017953Y050257D01*
X016572Y050257D01*
X016572Y050717D01*
D13*
X003750Y052265D02*
X003750Y052515D01*
X003250Y052515D01*
X002750Y052515D01*
X002750Y052265D01*
X003750Y052265D01*
X000500Y052165D02*
X000503Y052300D01*
X000513Y052435D01*
X000530Y052569D01*
X000553Y052701D01*
X000582Y052833D01*
X000618Y052963D01*
X000661Y053091D01*
X000709Y053217D01*
X000764Y053341D01*
X000825Y053461D01*
X000891Y053579D01*
X000963Y053693D01*
X001041Y053803D01*
X001124Y053910D01*
X001212Y054012D01*
X001305Y054110D01*
X001403Y054203D01*
X001505Y054291D01*
X001612Y054374D01*
X001722Y054452D01*
X001836Y054524D01*
X001954Y054590D01*
X002074Y054651D01*
X002198Y054706D01*
X002324Y054754D01*
X002452Y054797D01*
X002582Y054833D01*
X002714Y054862D01*
X002846Y054885D01*
X002980Y054902D01*
X003115Y054912D01*
X003250Y054915D01*
X003385Y054912D01*
X003520Y054902D01*
X003654Y054885D01*
X003786Y054862D01*
X003918Y054833D01*
X004048Y054797D01*
X004176Y054754D01*
X004302Y054706D01*
X004426Y054651D01*
X004546Y054590D01*
X004664Y054524D01*
X004778Y054452D01*
X004888Y054374D01*
X004995Y054291D01*
X005097Y054203D01*
X005195Y054110D01*
X005288Y054012D01*
X005376Y053910D01*
X005459Y053803D01*
X005537Y053693D01*
X005609Y053579D01*
X005675Y053461D01*
X005736Y053341D01*
X005791Y053217D01*
X005839Y053091D01*
X005882Y052963D01*
X005918Y052833D01*
X005947Y052701D01*
X005970Y052569D01*
X005987Y052435D01*
X005997Y052300D01*
X006000Y052165D01*
X005997Y052030D01*
X005987Y051895D01*
X005970Y051761D01*
X005947Y051629D01*
X005918Y051497D01*
X005882Y051367D01*
X005839Y051239D01*
X005791Y051113D01*
X005736Y050989D01*
X005675Y050869D01*
X005609Y050751D01*
X005537Y050637D01*
X005459Y050527D01*
X005376Y050420D01*
X005288Y050318D01*
X005195Y050220D01*
X005097Y050127D01*
X004995Y050039D01*
X004888Y049956D01*
X004778Y049878D01*
X004664Y049806D01*
X004546Y049740D01*
X004426Y049679D01*
X004302Y049624D01*
X004176Y049576D01*
X004048Y049533D01*
X003918Y049497D01*
X003786Y049468D01*
X003654Y049445D01*
X003520Y049428D01*
X003385Y049418D01*
X003250Y049415D01*
X003115Y049418D01*
X002980Y049428D01*
X002846Y049445D01*
X002714Y049468D01*
X002582Y049497D01*
X002452Y049533D01*
X002324Y049576D01*
X002198Y049624D01*
X002074Y049679D01*
X001954Y049740D01*
X001836Y049806D01*
X001722Y049878D01*
X001612Y049956D01*
X001505Y050039D01*
X001403Y050127D01*
X001305Y050220D01*
X001212Y050318D01*
X001124Y050420D01*
X001041Y050527D01*
X000963Y050637D01*
X000891Y050751D01*
X000825Y050869D01*
X000764Y050989D01*
X000709Y051113D01*
X000661Y051239D01*
X000618Y051367D01*
X000582Y051497D01*
X000553Y051629D01*
X000530Y051761D01*
X000513Y051895D01*
X000503Y052030D01*
X000500Y052165D01*
X003250Y051915D02*
X003250Y051715D01*
X003250Y052515D02*
X003250Y052615D01*
X003250Y053915D02*
X003250Y054415D01*
X003000Y054165D02*
X003500Y054165D01*
X010985Y032678D02*
X013625Y032678D01*
X013648Y032676D01*
X013671Y032671D01*
X013693Y032662D01*
X013713Y032649D01*
X013731Y032634D01*
X013746Y032616D01*
X013759Y032596D01*
X013768Y032574D01*
X013773Y032551D01*
X013775Y032528D01*
X010985Y032678D02*
X010962Y032676D01*
X010939Y032671D01*
X010917Y032662D01*
X010897Y032649D01*
X010879Y032634D01*
X010864Y032616D01*
X010851Y032596D01*
X010842Y032574D01*
X010837Y032551D01*
X010835Y032528D01*
X010835Y027708D02*
X010837Y027685D01*
X010842Y027662D01*
X010851Y027640D01*
X010864Y027620D01*
X010879Y027602D01*
X010897Y027587D01*
X010917Y027574D01*
X010939Y027565D01*
X010962Y027560D01*
X010985Y027558D01*
X011805Y027558D01*
X012805Y027558D01*
X013625Y027558D01*
X013648Y027560D01*
X013671Y027565D01*
X013693Y027574D01*
X013713Y027587D01*
X013731Y027602D01*
X013746Y027620D01*
X013759Y027640D01*
X013768Y027662D01*
X013773Y027685D01*
X013775Y027708D01*
X012805Y027558D02*
X012803Y027602D01*
X012797Y027645D01*
X012788Y027687D01*
X012775Y027729D01*
X012758Y027769D01*
X012738Y027808D01*
X012715Y027845D01*
X012688Y027879D01*
X012659Y027912D01*
X012626Y027941D01*
X012592Y027968D01*
X012555Y027991D01*
X012516Y028011D01*
X012476Y028028D01*
X012434Y028041D01*
X012392Y028050D01*
X012349Y028056D01*
X012305Y028058D01*
X012261Y028056D01*
X012218Y028050D01*
X012176Y028041D01*
X012134Y028028D01*
X012094Y028011D01*
X012055Y027991D01*
X012018Y027968D01*
X011984Y027941D01*
X011951Y027912D01*
X011922Y027879D01*
X011895Y027845D01*
X011872Y027808D01*
X011852Y027769D01*
X011835Y027729D01*
X011822Y027687D01*
X011813Y027645D01*
X011807Y027602D01*
X011805Y027558D01*
X004878Y027750D02*
X004628Y027500D01*
X003128Y027500D01*
X002878Y027750D01*
X002878Y028250D01*
X003128Y028500D01*
X002878Y028750D01*
X002878Y029250D01*
X003128Y029500D01*
X002878Y029750D01*
X002878Y030250D01*
X003128Y030500D01*
X004628Y030500D01*
X004878Y030250D01*
X004878Y029750D01*
X004628Y029500D01*
X003128Y029500D01*
X003128Y028500D02*
X004628Y028500D01*
X004878Y028750D01*
X004878Y029250D01*
X004628Y029500D01*
X004628Y028500D02*
X004878Y028250D01*
X004878Y027750D01*
X004628Y027500D02*
X004878Y027250D01*
X004878Y026750D01*
X004628Y026500D01*
X003128Y026500D01*
X002878Y026750D01*
X002878Y027250D01*
X003128Y027500D01*
X003128Y026500D02*
X002878Y026250D01*
X002878Y025750D01*
X003128Y025500D01*
X004628Y025500D01*
X004878Y025750D01*
X004878Y026250D01*
X004628Y026500D01*
X004628Y025500D02*
X004878Y025250D01*
X004878Y024750D01*
X004628Y024500D01*
X003128Y024500D01*
X002878Y024750D01*
X002878Y025250D01*
X003128Y025500D01*
X003128Y024500D02*
X002878Y024250D01*
X002878Y023750D01*
X003128Y023500D01*
X004628Y023500D01*
X004878Y023750D01*
X004878Y024250D01*
X004628Y024500D01*
X004628Y023500D02*
X004878Y023250D01*
X004878Y022750D01*
X004628Y022500D01*
X003128Y022500D01*
X002878Y022750D01*
X002878Y023250D01*
X003128Y023500D01*
X003128Y022500D02*
X002878Y022250D01*
X002878Y021750D01*
X003128Y021500D01*
X004628Y021500D01*
X004878Y021250D01*
X004878Y020750D01*
X004628Y020500D01*
X003128Y020500D01*
X002878Y020750D01*
X002878Y021250D01*
X003128Y021500D01*
X003128Y020500D02*
X002878Y020250D01*
X002878Y019750D01*
X003128Y019500D01*
X004628Y019500D01*
X004878Y019250D01*
X004878Y018750D01*
X004628Y018500D01*
X003128Y018500D01*
X002878Y018750D01*
X002878Y019250D01*
X003128Y019500D01*
X003128Y018500D02*
X002878Y018250D01*
X002878Y017750D01*
X003128Y017500D01*
X004628Y017500D01*
X004878Y017250D01*
X004878Y016750D01*
X004628Y016500D01*
X003128Y016500D01*
X002878Y016750D01*
X002878Y017250D01*
X003128Y017500D01*
X003128Y016500D02*
X002878Y016250D01*
X002878Y015750D01*
X003128Y015500D01*
X004628Y015500D01*
X004878Y015250D01*
X004878Y014750D01*
X004628Y014500D01*
X003128Y014500D01*
X002878Y014750D01*
X002878Y015250D01*
X003128Y015500D01*
X003128Y014500D02*
X002878Y014250D01*
X002878Y013750D01*
X003128Y013500D01*
X004628Y013500D01*
X004878Y013750D01*
X004878Y014250D01*
X004628Y014500D01*
X004628Y013500D02*
X004878Y013250D01*
X004878Y012750D01*
X004628Y012500D01*
X003128Y012500D01*
X002878Y012750D01*
X002878Y013250D01*
X003128Y013500D01*
X003128Y012500D02*
X002878Y012250D01*
X002878Y011750D01*
X003128Y011500D01*
X004628Y011500D01*
X004878Y011750D01*
X004878Y012250D01*
X004628Y012500D01*
X004628Y011500D02*
X004878Y011250D01*
X004878Y010750D01*
X004628Y010500D01*
X003128Y010500D01*
X002878Y010750D01*
X002878Y011250D01*
X003128Y011500D01*
X003128Y010500D02*
X002878Y010250D01*
X002878Y009750D01*
X003128Y009500D01*
X004628Y009500D01*
X004878Y009750D01*
X004878Y010250D01*
X004628Y010500D01*
X004628Y009500D02*
X004878Y009250D01*
X004878Y008750D01*
X004628Y008500D01*
X003128Y008500D01*
X002878Y008750D01*
X002878Y009250D01*
X003128Y009500D01*
X003128Y008500D02*
X002878Y008250D01*
X002878Y007750D01*
X003128Y007500D01*
X004628Y007500D01*
X004878Y007750D01*
X004878Y008250D01*
X004628Y008500D01*
X012076Y011411D02*
X012076Y011911D01*
X012326Y012161D01*
X013826Y012161D01*
X014076Y012411D01*
X014076Y012911D01*
X013826Y013161D01*
X012326Y013161D01*
X012076Y013411D01*
X012076Y013911D01*
X012326Y014161D01*
X013826Y014161D01*
X014076Y014411D01*
X014076Y014911D01*
X013826Y015161D01*
X012326Y015161D01*
X012076Y015411D01*
X012076Y015911D01*
X012326Y016161D01*
X013826Y016161D01*
X014076Y016411D01*
X014076Y016911D01*
X013826Y017161D01*
X012326Y017161D01*
X012076Y017411D01*
X012076Y017911D01*
X012326Y018161D01*
X013826Y018161D01*
X014076Y017911D01*
X014076Y017411D01*
X013826Y017161D01*
X013826Y016161D02*
X014076Y015911D01*
X014076Y015411D01*
X013826Y015161D01*
X013826Y014161D02*
X014076Y013911D01*
X014076Y013411D01*
X013826Y013161D01*
X013826Y012161D02*
X014076Y011911D01*
X014076Y011411D01*
X013826Y011161D01*
X012326Y011161D01*
X012076Y011411D01*
X012441Y010907D02*
X012335Y010800D01*
X012441Y010907D02*
X012655Y010907D01*
X012762Y010800D01*
X012762Y010693D01*
X012335Y010266D01*
X012762Y010266D01*
X013319Y010266D02*
X013746Y010266D01*
X013532Y010266D02*
X013532Y010907D01*
X013319Y010693D01*
X012326Y012161D02*
X012076Y012411D01*
X012076Y012911D01*
X012326Y013161D01*
X012326Y014161D02*
X012076Y014411D01*
X012076Y014911D01*
X012326Y015161D01*
X012326Y016161D02*
X012076Y016411D01*
X012076Y016911D01*
X012326Y017161D01*
X012326Y018161D02*
X012076Y018411D01*
X012076Y018911D01*
X012326Y019161D01*
X013826Y019161D01*
X014076Y018911D01*
X014076Y018411D01*
X013826Y018161D01*
X013826Y019161D02*
X014076Y019411D01*
X014076Y019911D01*
X013826Y020161D01*
X014076Y020411D01*
X014076Y020911D01*
X013826Y021161D01*
X012326Y021161D01*
X012076Y020911D01*
X012076Y020411D01*
X012326Y020161D01*
X013826Y020161D01*
X012326Y020161D02*
X012076Y019911D01*
X012076Y019411D01*
X012326Y019161D01*
X004878Y019750D02*
X004628Y019500D01*
X004878Y019750D02*
X004878Y020250D01*
X004628Y020500D01*
X004628Y021500D02*
X004878Y021750D01*
X004878Y022250D01*
X004628Y022500D01*
X004628Y018500D02*
X004878Y018250D01*
X004878Y017750D01*
X004628Y017500D01*
X004628Y016500D02*
X004878Y016250D01*
X004878Y015750D01*
X004628Y015500D01*
X021878Y015250D02*
X022128Y015500D01*
X023628Y015500D01*
X023878Y015250D01*
X023878Y014750D01*
X023628Y014500D01*
X022128Y014500D01*
X021878Y014750D01*
X021878Y015250D01*
X022128Y015500D02*
X021878Y015750D01*
X021878Y016250D01*
X022128Y016500D01*
X023628Y016500D01*
X023878Y016250D01*
X023878Y015750D01*
X023628Y015500D01*
X023628Y014500D02*
X023878Y014250D01*
X023878Y013750D01*
X023628Y013500D01*
X022128Y013500D01*
X021878Y013750D01*
X021878Y014250D01*
X022128Y014500D01*
X022128Y013500D02*
X021878Y013250D01*
X021878Y012750D01*
X022128Y012500D01*
X023628Y012500D01*
X023878Y012750D01*
X023878Y013250D01*
X023628Y013500D01*
X023628Y012500D02*
X023878Y012250D01*
X023878Y011750D01*
X023628Y011500D01*
X022128Y011500D01*
X021878Y011750D01*
X021878Y012250D01*
X022128Y012500D01*
X022128Y011500D02*
X021878Y011250D01*
X021878Y010750D01*
X022128Y010500D01*
X023628Y010500D01*
X023878Y010750D01*
X023878Y011250D01*
X023628Y011500D01*
X023628Y010500D02*
X023878Y010250D01*
X023878Y009750D01*
X023628Y009500D01*
X022128Y009500D01*
X021878Y009750D01*
X021878Y010250D01*
X022128Y010500D01*
X022128Y009500D02*
X021878Y009250D01*
X021878Y008750D01*
X022128Y008500D01*
X023628Y008500D01*
X023878Y008750D01*
X023878Y009250D01*
X023628Y009500D01*
X023628Y008500D02*
X023878Y008250D01*
X023878Y007750D01*
X023628Y007500D01*
X022128Y007500D01*
X021878Y007750D01*
X021878Y008250D01*
X022128Y008500D01*
X028071Y015196D02*
X028472Y015342D01*
X028676Y015416D02*
X028877Y015489D01*
X028777Y015453D02*
X028631Y015854D01*
X028530Y015818D01*
X028558Y016055D02*
X028521Y016155D01*
X028317Y016403D02*
X028719Y016549D01*
X028923Y016624D02*
X029224Y016733D01*
X029288Y016870D01*
X029251Y016970D01*
X029114Y017034D01*
X028813Y016924D01*
X028923Y016624D02*
X028704Y017225D01*
X029005Y017335D01*
X029142Y017271D01*
X029178Y017171D01*
X029114Y017034D01*
X029346Y017346D02*
X029410Y017482D01*
X029610Y017555D01*
X029747Y017492D01*
X029784Y017391D01*
X029529Y016844D01*
X029930Y016990D01*
X030098Y017165D02*
X030353Y017712D01*
X030499Y017311D01*
X030435Y017174D01*
X030235Y017101D01*
X030098Y017165D01*
X029952Y017566D01*
X030016Y017703D01*
X030216Y017776D01*
X030353Y017712D01*
X030594Y017686D02*
X030722Y017960D01*
X030941Y017358D01*
X031141Y017431D02*
X030740Y017285D01*
X030851Y016662D02*
X031152Y016772D01*
X031125Y016535D02*
X030924Y016462D01*
X030788Y016526D01*
X030851Y016662D01*
X031125Y016535D02*
X031262Y016471D01*
X031198Y016334D01*
X030897Y016225D01*
X030693Y016150D02*
X030583Y016451D01*
X030446Y016515D01*
X030145Y016406D01*
X030292Y016004D01*
X030014Y016130D02*
X029613Y015984D01*
X029649Y015884D02*
X029576Y016085D01*
X029640Y016222D01*
X029841Y016295D01*
X029978Y016231D01*
X030014Y016130D01*
X029987Y015893D02*
X029786Y015820D01*
X029649Y015884D01*
X029481Y015709D02*
X029180Y015600D01*
X029044Y015664D01*
X028971Y015864D01*
X029034Y016001D01*
X029335Y016111D01*
X028317Y016403D02*
X028098Y017005D01*
X028499Y017151D01*
X028408Y016777D02*
X028208Y016704D01*
X027894Y016931D02*
X027492Y016785D01*
X027712Y016183D01*
X027602Y016484D02*
X027803Y016557D01*
X027653Y017279D02*
X027717Y017416D01*
X027681Y017516D01*
X027544Y017580D01*
X027243Y017470D01*
X027316Y017270D01*
X027453Y017206D01*
X027653Y017279D01*
X027243Y017470D02*
X027371Y017744D01*
X027535Y017917D01*
X027849Y017691D02*
X028250Y017837D01*
X028454Y017911D02*
X028856Y018057D01*
X028819Y018158D02*
X028965Y017756D01*
X029169Y017831D02*
X029352Y018579D01*
X029556Y018653D02*
X029757Y018726D01*
X029656Y018690D02*
X029875Y018088D01*
X029775Y018051D02*
X029976Y018124D01*
X030142Y018298D02*
X030279Y018235D01*
X030480Y018308D01*
X030544Y018444D01*
X030507Y018545D01*
X030370Y018609D01*
X030170Y018536D01*
X030033Y018599D01*
X029996Y018700D01*
X030060Y018836D01*
X030261Y018909D01*
X030398Y018846D01*
X031171Y019241D02*
X031472Y019350D01*
X031609Y019287D01*
X031755Y018885D01*
X031691Y018748D01*
X031390Y018639D01*
X031171Y019241D01*
X031813Y019361D02*
X031959Y018960D01*
X032096Y018896D01*
X032297Y018969D01*
X032361Y019106D01*
X032215Y019507D02*
X032078Y019571D01*
X031877Y019498D01*
X031813Y019361D01*
X032033Y018437D02*
X031732Y018328D01*
X031951Y017726D01*
X031878Y017926D02*
X032179Y018036D01*
X032243Y018173D01*
X032170Y018373D01*
X032033Y018437D01*
X032374Y018448D02*
X032520Y018047D01*
X032657Y017983D01*
X032858Y018056D01*
X032922Y018193D01*
X032776Y018594D01*
X032639Y018658D01*
X032438Y018585D01*
X032374Y018448D01*
X032079Y017999D02*
X032353Y017872D01*
X032291Y017414D02*
X032510Y016812D01*
X032209Y016702D01*
X032072Y016766D01*
X031999Y016967D01*
X032063Y017103D01*
X032364Y017213D01*
X031795Y016892D02*
X031831Y016792D01*
X031430Y016646D01*
X031393Y016746D02*
X031457Y016883D01*
X031658Y016956D01*
X031795Y016892D01*
X031804Y016555D02*
X031603Y016482D01*
X031466Y016545D01*
X031393Y016746D01*
X031446Y017542D02*
X031309Y017606D01*
X031446Y017542D02*
X031647Y017615D01*
X031710Y017752D01*
X031674Y017852D01*
X031537Y017916D01*
X031437Y017879D01*
X031537Y017916D02*
X031601Y018053D01*
X031564Y018153D01*
X031428Y018217D01*
X031227Y018144D01*
X031163Y018007D01*
X029571Y017977D02*
X028950Y018433D01*
X028819Y018158D02*
X028545Y018285D01*
X028418Y018011D01*
X028564Y017610D01*
X027852Y015798D02*
X028071Y015196D01*
X023878Y016750D02*
X023628Y016500D01*
X023878Y016750D02*
X023878Y017250D01*
X023628Y017500D01*
X022128Y017500D01*
X021878Y017750D01*
X021878Y018250D01*
X022128Y018500D01*
X023628Y018500D01*
X023878Y018250D01*
X023878Y017750D01*
X023628Y017500D01*
X023628Y018500D02*
X023878Y018750D01*
X023878Y019250D01*
X023628Y019500D01*
X022128Y019500D01*
X021878Y019750D01*
X021878Y020250D01*
X022128Y020500D01*
X023628Y020500D01*
X023878Y020250D01*
X023878Y019750D01*
X023628Y019500D01*
X023628Y020500D02*
X023878Y020750D01*
X023878Y021250D01*
X023628Y021500D01*
X022128Y021500D01*
X021878Y021750D01*
X021878Y022250D01*
X022128Y022500D01*
X023628Y022500D01*
X023878Y022250D01*
X023878Y021750D01*
X023628Y021500D01*
X023628Y022500D02*
X023878Y022750D01*
X023878Y023250D01*
X023628Y023500D01*
X023878Y023750D01*
X023878Y024250D01*
X023628Y024500D01*
X023878Y024750D01*
X023878Y025250D01*
X023628Y025500D01*
X023878Y025750D01*
X023878Y026250D01*
X023628Y026500D01*
X023878Y026750D01*
X023878Y027250D01*
X023628Y027500D01*
X023878Y027750D01*
X023878Y028250D01*
X023628Y028500D01*
X023878Y028750D01*
X023878Y029250D01*
X023628Y029500D01*
X023878Y029750D01*
X023878Y030250D01*
X023628Y030500D01*
X022128Y030500D01*
X021878Y030250D01*
X021878Y029750D01*
X022128Y029500D01*
X023628Y029500D01*
X023628Y028500D02*
X022128Y028500D01*
X021878Y028750D01*
X021878Y029250D01*
X022128Y029500D01*
X022128Y028500D02*
X021878Y028250D01*
X021878Y027750D01*
X022128Y027500D01*
X023628Y027500D01*
X023628Y026500D02*
X022128Y026500D01*
X021878Y026750D01*
X021878Y027250D01*
X022128Y027500D01*
X022128Y026500D02*
X021878Y026250D01*
X021878Y025750D01*
X022128Y025500D01*
X023628Y025500D01*
X023628Y024500D02*
X022128Y024500D01*
X021878Y024750D01*
X021878Y025250D01*
X022128Y025500D01*
X022128Y024500D02*
X021878Y024250D01*
X021878Y023750D01*
X022128Y023500D01*
X023628Y023500D01*
X022128Y023500D02*
X021878Y023250D01*
X021878Y022750D01*
X022128Y022500D01*
X022128Y021500D02*
X021878Y021250D01*
X021878Y020750D01*
X022128Y020500D01*
X022128Y019500D02*
X021878Y019250D01*
X021878Y018750D01*
X022128Y018500D01*
X022128Y017500D02*
X021878Y017250D01*
X021878Y016750D01*
X022128Y016500D01*
X032944Y018769D02*
X033345Y018915D01*
X033144Y018842D02*
X033363Y018240D01*
X033768Y018387D02*
X033549Y018989D01*
X033823Y018861D01*
X033951Y019135D01*
X034170Y018533D01*
X034713Y018295D02*
X034933Y017693D01*
X034632Y017584D01*
X034495Y017648D01*
X034422Y017848D01*
X034486Y017985D01*
X034786Y018095D01*
X035027Y018069D02*
X035091Y018206D01*
X035292Y018279D01*
X035429Y018215D01*
X035465Y018115D01*
X035064Y017968D01*
X035100Y017868D02*
X035027Y018069D01*
X035100Y017868D02*
X035237Y017804D01*
X035438Y017877D01*
X035743Y017988D02*
X035597Y018390D01*
X035797Y018463D02*
X035898Y018499D01*
X035797Y018463D02*
X035670Y018189D01*
X035585Y019048D02*
X035987Y019194D01*
X036191Y019269D02*
X035972Y019871D01*
X036273Y019980D01*
X036410Y019917D01*
X036483Y019716D01*
X036419Y019579D01*
X036118Y019470D01*
X036319Y019543D02*
X036592Y019415D01*
X036760Y019590D02*
X036897Y019526D01*
X037098Y019599D01*
X037161Y019736D01*
X037125Y019836D01*
X036988Y019900D01*
X036788Y019827D01*
X036651Y019891D01*
X036614Y019991D01*
X036678Y020128D01*
X036879Y020201D01*
X037015Y020137D01*
X037183Y020312D02*
X037384Y020385D01*
X037284Y020348D02*
X037503Y019746D01*
X037603Y019783D02*
X037402Y019710D01*
X037641Y019361D02*
X037240Y019215D01*
X037459Y018613D01*
X037860Y018759D01*
X038064Y018833D02*
X037845Y019435D01*
X038146Y019545D01*
X038283Y019481D01*
X038356Y019280D01*
X038292Y019143D01*
X037991Y019034D01*
X038192Y019107D02*
X038466Y018979D01*
X038670Y019054D02*
X038451Y019656D01*
X039071Y019200D01*
X038852Y019802D01*
X038813Y020223D02*
X038594Y020825D01*
X038193Y020679D02*
X038813Y020223D01*
X038412Y020077D02*
X038193Y020679D01*
X038025Y020504D02*
X037888Y020568D01*
X037687Y020495D01*
X037624Y020358D01*
X037770Y019957D01*
X037907Y019893D01*
X038107Y019966D01*
X038171Y020103D01*
X038025Y020504D01*
X037848Y020989D02*
X037575Y021117D01*
X037675Y021154D02*
X037374Y021044D01*
X037447Y020843D02*
X037228Y021445D01*
X037529Y021555D01*
X037666Y021491D01*
X037739Y021290D01*
X037675Y021154D01*
X038053Y021064D02*
X038253Y021137D01*
X038153Y021100D02*
X037934Y021702D01*
X037834Y021666D02*
X038034Y021739D01*
X038237Y021813D02*
X038384Y021411D01*
X038657Y021284D01*
X038785Y021558D01*
X038639Y021959D01*
X038843Y022033D02*
X039062Y021431D01*
X039463Y021577D01*
X039668Y021652D02*
X039449Y022254D01*
X039750Y022363D01*
X039887Y022299D01*
X039960Y022099D01*
X039896Y021962D01*
X039595Y021852D01*
X039796Y021925D02*
X040069Y021798D01*
X040010Y021340D02*
X040229Y020739D01*
X040630Y020885D01*
X040835Y020959D02*
X040616Y021561D01*
X040916Y021670D01*
X041053Y021607D01*
X041126Y021406D01*
X041063Y021269D01*
X040762Y021160D01*
X040962Y021233D02*
X041236Y021105D01*
X041404Y021280D02*
X041541Y021216D01*
X041741Y021289D01*
X041805Y021426D01*
X041659Y021827D01*
X041522Y021891D01*
X041322Y021818D01*
X041258Y021681D01*
X041404Y021280D01*
X042158Y020778D02*
X042505Y020449D01*
X042559Y020924D01*
X042764Y020998D02*
X042891Y021272D01*
X043110Y020670D01*
X042910Y020597D02*
X043311Y020743D01*
X043515Y020817D02*
X043616Y020854D01*
X043579Y020954D01*
X043479Y020918D01*
X043515Y020817D01*
X043818Y020928D02*
X044220Y021074D01*
X044019Y021001D02*
X043800Y021603D01*
X043672Y021329D01*
X044387Y021248D02*
X044488Y021285D01*
X044524Y021185D01*
X044424Y021148D01*
X044387Y021248D01*
X044727Y021258D02*
X045128Y021404D01*
X044927Y021331D02*
X044708Y021933D01*
X044581Y021660D01*
X043603Y023084D02*
X043302Y022974D01*
X043083Y023576D01*
X043384Y023686D01*
X043521Y023622D01*
X043667Y023221D01*
X043603Y023084D01*
X043098Y022900D02*
X042824Y023028D01*
X042924Y023064D02*
X042623Y022955D01*
X042696Y022754D02*
X042477Y023356D01*
X042778Y023465D01*
X042915Y023402D01*
X042988Y023201D01*
X042924Y023064D01*
X042382Y022981D02*
X041981Y022834D01*
X041945Y022935D02*
X042072Y023208D01*
X042346Y023081D01*
X042492Y022680D01*
X042091Y022534D02*
X041945Y022935D01*
X041704Y022961D02*
X041850Y022559D01*
X041786Y022423D01*
X041585Y022350D01*
X041448Y022413D01*
X041302Y022815D01*
X041366Y022951D01*
X041567Y023025D01*
X041704Y022961D01*
X041098Y022740D02*
X041134Y022640D01*
X041071Y022503D01*
X040770Y022394D01*
X041071Y022503D02*
X041208Y022439D01*
X041244Y022339D01*
X041180Y022202D01*
X040879Y022093D01*
X040660Y022695D01*
X040961Y022804D01*
X041098Y022740D01*
X039244Y022179D02*
X038843Y022033D01*
X038953Y021732D02*
X039153Y021805D01*
X039404Y021120D02*
X039805Y021266D01*
X039842Y021166D01*
X039587Y020618D01*
X039623Y020518D01*
X040025Y020664D01*
X040119Y021039D02*
X040320Y021113D01*
X040411Y021486D02*
X040010Y021340D01*
X040669Y020463D02*
X040888Y019861D01*
X041093Y019936D02*
X041494Y020082D01*
X041093Y019936D02*
X040874Y020537D01*
X040779Y020162D02*
X040378Y020016D01*
X040246Y019741D02*
X040100Y020142D01*
X039963Y020206D01*
X039763Y020133D01*
X039699Y019996D01*
X039845Y019595D01*
X039982Y019531D01*
X040182Y019604D01*
X040246Y019741D01*
X040487Y019715D02*
X040268Y020317D01*
X037550Y018987D02*
X037349Y018914D01*
X037072Y019040D02*
X036935Y019104D01*
X036734Y019031D01*
X036670Y018894D01*
X036816Y018493D01*
X036953Y018429D01*
X037154Y018502D01*
X037218Y018639D01*
X035585Y019048D02*
X035366Y019650D01*
X035768Y019796D01*
X035676Y019422D02*
X035476Y019349D01*
X035308Y019175D02*
X035162Y019576D01*
X035308Y019175D02*
X035180Y018901D01*
X034907Y019029D01*
X034761Y019430D01*
X034820Y019887D02*
X034546Y020015D01*
X034647Y020051D02*
X034346Y019942D01*
X034419Y019741D02*
X034200Y020343D01*
X034501Y020453D01*
X034637Y020389D01*
X034710Y020188D01*
X034647Y020051D01*
X034951Y020162D02*
X034805Y020564D01*
X035207Y020710D02*
X035353Y020308D01*
X035225Y020035D01*
X034951Y020162D01*
X035594Y020282D02*
X035447Y020684D01*
X035511Y020821D01*
X035712Y020894D01*
X035849Y020830D01*
X035995Y020428D01*
X035931Y020292D01*
X035730Y020219D01*
X035594Y020282D01*
X036841Y020623D02*
X037142Y020733D01*
X037206Y020869D01*
X037060Y021271D01*
X036923Y021334D01*
X036622Y021225D01*
X036841Y020623D01*
X034214Y019667D02*
X033813Y019521D01*
X033594Y020123D01*
X033995Y020269D01*
X033904Y019895D02*
X033703Y019822D01*
X033536Y019647D02*
X033399Y019711D01*
X033198Y019638D01*
X033061Y019702D01*
X033025Y019802D01*
X033089Y019939D01*
X033289Y020012D01*
X033426Y019948D01*
X033536Y019647D02*
X033572Y019547D01*
X033508Y019410D01*
X033308Y019337D01*
X033171Y019401D01*
X033780Y017728D02*
X034080Y017838D01*
X034217Y017774D01*
X034327Y017473D01*
X033926Y017327D02*
X033780Y017728D01*
X033575Y017654D02*
X033721Y017253D01*
X033420Y017143D01*
X033283Y017207D01*
X033174Y017508D01*
X033819Y027361D02*
X034639Y027361D01*
X035639Y027361D01*
X036459Y027361D01*
X036482Y027363D01*
X036505Y027368D01*
X036527Y027377D01*
X036547Y027390D01*
X036565Y027405D01*
X036580Y027423D01*
X036593Y027443D01*
X036602Y027465D01*
X036607Y027488D01*
X036609Y027511D01*
X035639Y027361D02*
X035637Y027405D01*
X035631Y027448D01*
X035622Y027490D01*
X035609Y027532D01*
X035592Y027572D01*
X035572Y027611D01*
X035549Y027648D01*
X035522Y027682D01*
X035493Y027715D01*
X035460Y027744D01*
X035426Y027771D01*
X035389Y027794D01*
X035350Y027814D01*
X035310Y027831D01*
X035268Y027844D01*
X035226Y027853D01*
X035183Y027859D01*
X035139Y027861D01*
X035095Y027859D01*
X035052Y027853D01*
X035010Y027844D01*
X034968Y027831D01*
X034928Y027814D01*
X034889Y027794D01*
X034852Y027771D01*
X034818Y027744D01*
X034785Y027715D01*
X034756Y027682D01*
X034729Y027648D01*
X034706Y027611D01*
X034686Y027572D01*
X034669Y027532D01*
X034656Y027490D01*
X034647Y027448D01*
X034641Y027405D01*
X034639Y027361D01*
X033819Y027361D02*
X033796Y027363D01*
X033773Y027368D01*
X033751Y027377D01*
X033731Y027390D01*
X033713Y027405D01*
X033698Y027423D01*
X033685Y027443D01*
X033676Y027465D01*
X033671Y027488D01*
X033669Y027511D01*
X033669Y032331D02*
X033671Y032354D01*
X033676Y032377D01*
X033685Y032399D01*
X033698Y032419D01*
X033713Y032437D01*
X033731Y032452D01*
X033751Y032465D01*
X033773Y032474D01*
X033796Y032479D01*
X033819Y032481D01*
X036459Y032481D01*
X036482Y032479D01*
X036505Y032474D01*
X036527Y032465D01*
X036547Y032452D01*
X036565Y032437D01*
X036580Y032419D01*
X036593Y032399D01*
X036602Y032377D01*
X036607Y032354D01*
X036609Y032331D01*
X056063Y029332D02*
X058703Y029332D01*
X058726Y029330D01*
X058749Y029325D01*
X058771Y029316D01*
X058791Y029303D01*
X058809Y029288D01*
X058824Y029270D01*
X058837Y029250D01*
X058846Y029228D01*
X058851Y029205D01*
X058853Y029182D01*
X056063Y029332D02*
X056040Y029330D01*
X056017Y029325D01*
X055995Y029316D01*
X055975Y029303D01*
X055957Y029288D01*
X055942Y029270D01*
X055929Y029250D01*
X055920Y029228D01*
X055915Y029205D01*
X055913Y029182D01*
X055913Y024362D02*
X055915Y024339D01*
X055920Y024316D01*
X055929Y024294D01*
X055942Y024274D01*
X055957Y024256D01*
X055975Y024241D01*
X055995Y024228D01*
X056017Y024219D01*
X056040Y024214D01*
X056063Y024212D01*
X056883Y024212D01*
X057883Y024212D01*
X058703Y024212D01*
X058726Y024214D01*
X058749Y024219D01*
X058771Y024228D01*
X058791Y024241D01*
X058809Y024256D01*
X058824Y024274D01*
X058837Y024294D01*
X058846Y024316D01*
X058851Y024339D01*
X058853Y024362D01*
X057883Y024212D02*
X057881Y024256D01*
X057875Y024299D01*
X057866Y024341D01*
X057853Y024383D01*
X057836Y024423D01*
X057816Y024462D01*
X057793Y024499D01*
X057766Y024533D01*
X057737Y024566D01*
X057704Y024595D01*
X057670Y024622D01*
X057633Y024645D01*
X057594Y024665D01*
X057554Y024682D01*
X057512Y024695D01*
X057470Y024704D01*
X057427Y024710D01*
X057383Y024712D01*
X057339Y024710D01*
X057296Y024704D01*
X057254Y024695D01*
X057212Y024682D01*
X057172Y024665D01*
X057133Y024645D01*
X057096Y024622D01*
X057062Y024595D01*
X057029Y024566D01*
X057000Y024533D01*
X056973Y024499D01*
X056950Y024462D01*
X056930Y024423D01*
X056913Y024383D01*
X056900Y024341D01*
X056891Y024299D01*
X056885Y024256D01*
X056883Y024212D01*
X066469Y029754D02*
X066789Y029754D01*
X066896Y029861D01*
X066896Y029968D01*
X066789Y030075D01*
X066469Y030075D01*
X066789Y030075D02*
X066896Y030181D01*
X066896Y030288D01*
X066789Y030395D01*
X066469Y030395D01*
X066469Y029754D01*
X067113Y029754D02*
X067113Y030395D01*
X067433Y030395D01*
X067540Y030288D01*
X067540Y030075D01*
X067433Y029968D01*
X067113Y029968D01*
X067327Y029968D02*
X067540Y029754D01*
X067758Y029754D02*
X067758Y030181D01*
X067971Y030395D01*
X068185Y030181D01*
X068185Y029754D01*
X068402Y029754D02*
X068402Y030395D01*
X068509Y030075D02*
X068829Y029754D01*
X069047Y029754D02*
X069047Y030395D01*
X069474Y030395D01*
X069260Y030075D02*
X069047Y030075D01*
X069047Y029754D02*
X069474Y029754D01*
X068829Y030395D02*
X068402Y029968D01*
X068185Y030075D02*
X067758Y030075D01*
X067423Y051715D02*
X067423Y051915D01*
X064673Y052165D02*
X064676Y052300D01*
X064686Y052435D01*
X064703Y052569D01*
X064726Y052701D01*
X064755Y052833D01*
X064791Y052963D01*
X064834Y053091D01*
X064882Y053217D01*
X064937Y053341D01*
X064998Y053461D01*
X065064Y053579D01*
X065136Y053693D01*
X065214Y053803D01*
X065297Y053910D01*
X065385Y054012D01*
X065478Y054110D01*
X065576Y054203D01*
X065678Y054291D01*
X065785Y054374D01*
X065895Y054452D01*
X066009Y054524D01*
X066127Y054590D01*
X066247Y054651D01*
X066371Y054706D01*
X066497Y054754D01*
X066625Y054797D01*
X066755Y054833D01*
X066887Y054862D01*
X067019Y054885D01*
X067153Y054902D01*
X067288Y054912D01*
X067423Y054915D01*
X067558Y054912D01*
X067693Y054902D01*
X067827Y054885D01*
X067959Y054862D01*
X068091Y054833D01*
X068221Y054797D01*
X068349Y054754D01*
X068475Y054706D01*
X068599Y054651D01*
X068719Y054590D01*
X068837Y054524D01*
X068951Y054452D01*
X069061Y054374D01*
X069168Y054291D01*
X069270Y054203D01*
X069368Y054110D01*
X069461Y054012D01*
X069549Y053910D01*
X069632Y053803D01*
X069710Y053693D01*
X069782Y053579D01*
X069848Y053461D01*
X069909Y053341D01*
X069964Y053217D01*
X070012Y053091D01*
X070055Y052963D01*
X070091Y052833D01*
X070120Y052701D01*
X070143Y052569D01*
X070160Y052435D01*
X070170Y052300D01*
X070173Y052165D01*
X070170Y052030D01*
X070160Y051895D01*
X070143Y051761D01*
X070120Y051629D01*
X070091Y051497D01*
X070055Y051367D01*
X070012Y051239D01*
X069964Y051113D01*
X069909Y050989D01*
X069848Y050869D01*
X069782Y050751D01*
X069710Y050637D01*
X069632Y050527D01*
X069549Y050420D01*
X069461Y050318D01*
X069368Y050220D01*
X069270Y050127D01*
X069168Y050039D01*
X069061Y049956D01*
X068951Y049878D01*
X068837Y049806D01*
X068719Y049740D01*
X068599Y049679D01*
X068475Y049624D01*
X068349Y049576D01*
X068221Y049533D01*
X068091Y049497D01*
X067959Y049468D01*
X067827Y049445D01*
X067693Y049428D01*
X067558Y049418D01*
X067423Y049415D01*
X067288Y049418D01*
X067153Y049428D01*
X067019Y049445D01*
X066887Y049468D01*
X066755Y049497D01*
X066625Y049533D01*
X066497Y049576D01*
X066371Y049624D01*
X066247Y049679D01*
X066127Y049740D01*
X066009Y049806D01*
X065895Y049878D01*
X065785Y049956D01*
X065678Y050039D01*
X065576Y050127D01*
X065478Y050220D01*
X065385Y050318D01*
X065297Y050420D01*
X065214Y050527D01*
X065136Y050637D01*
X065064Y050751D01*
X064998Y050869D01*
X064937Y050989D01*
X064882Y051113D01*
X064834Y051239D01*
X064791Y051367D01*
X064755Y051497D01*
X064726Y051629D01*
X064703Y051761D01*
X064686Y051895D01*
X064676Y052030D01*
X064673Y052165D01*
X066923Y052265D02*
X067923Y052265D01*
X067923Y052515D01*
X067423Y052515D01*
X066923Y052515D01*
X066923Y052265D01*
X067423Y052515D02*
X067423Y052615D01*
X067423Y053915D02*
X067423Y054415D01*
X067173Y054165D02*
X067673Y054165D01*
X061624Y052515D02*
X061124Y052515D01*
X060624Y052515D01*
X060624Y052265D01*
X061624Y052265D01*
X061624Y052515D01*
X061124Y052515D02*
X061124Y052615D01*
X058374Y052165D02*
X058377Y052300D01*
X058387Y052435D01*
X058404Y052569D01*
X058427Y052701D01*
X058456Y052833D01*
X058492Y052963D01*
X058535Y053091D01*
X058583Y053217D01*
X058638Y053341D01*
X058699Y053461D01*
X058765Y053579D01*
X058837Y053693D01*
X058915Y053803D01*
X058998Y053910D01*
X059086Y054012D01*
X059179Y054110D01*
X059277Y054203D01*
X059379Y054291D01*
X059486Y054374D01*
X059596Y054452D01*
X059710Y054524D01*
X059828Y054590D01*
X059948Y054651D01*
X060072Y054706D01*
X060198Y054754D01*
X060326Y054797D01*
X060456Y054833D01*
X060588Y054862D01*
X060720Y054885D01*
X060854Y054902D01*
X060989Y054912D01*
X061124Y054915D01*
X061259Y054912D01*
X061394Y054902D01*
X061528Y054885D01*
X061660Y054862D01*
X061792Y054833D01*
X061922Y054797D01*
X062050Y054754D01*
X062176Y054706D01*
X062300Y054651D01*
X062420Y054590D01*
X062538Y054524D01*
X062652Y054452D01*
X062762Y054374D01*
X062869Y054291D01*
X062971Y054203D01*
X063069Y054110D01*
X063162Y054012D01*
X063250Y053910D01*
X063333Y053803D01*
X063411Y053693D01*
X063483Y053579D01*
X063549Y053461D01*
X063610Y053341D01*
X063665Y053217D01*
X063713Y053091D01*
X063756Y052963D01*
X063792Y052833D01*
X063821Y052701D01*
X063844Y052569D01*
X063861Y052435D01*
X063871Y052300D01*
X063874Y052165D01*
X063871Y052030D01*
X063861Y051895D01*
X063844Y051761D01*
X063821Y051629D01*
X063792Y051497D01*
X063756Y051367D01*
X063713Y051239D01*
X063665Y051113D01*
X063610Y050989D01*
X063549Y050869D01*
X063483Y050751D01*
X063411Y050637D01*
X063333Y050527D01*
X063250Y050420D01*
X063162Y050318D01*
X063069Y050220D01*
X062971Y050127D01*
X062869Y050039D01*
X062762Y049956D01*
X062652Y049878D01*
X062538Y049806D01*
X062420Y049740D01*
X062300Y049679D01*
X062176Y049624D01*
X062050Y049576D01*
X061922Y049533D01*
X061792Y049497D01*
X061660Y049468D01*
X061528Y049445D01*
X061394Y049428D01*
X061259Y049418D01*
X061124Y049415D01*
X060989Y049418D01*
X060854Y049428D01*
X060720Y049445D01*
X060588Y049468D01*
X060456Y049497D01*
X060326Y049533D01*
X060198Y049576D01*
X060072Y049624D01*
X059948Y049679D01*
X059828Y049740D01*
X059710Y049806D01*
X059596Y049878D01*
X059486Y049956D01*
X059379Y050039D01*
X059277Y050127D01*
X059179Y050220D01*
X059086Y050318D01*
X058998Y050420D01*
X058915Y050527D01*
X058837Y050637D01*
X058765Y050751D01*
X058699Y050869D01*
X058638Y050989D01*
X058583Y051113D01*
X058535Y051239D01*
X058492Y051367D01*
X058456Y051497D01*
X058427Y051629D01*
X058404Y051761D01*
X058387Y051895D01*
X058377Y052030D01*
X058374Y052165D01*
X060874Y054165D02*
X061374Y054165D01*
X061124Y054415D02*
X061124Y053915D01*
X061124Y051915D02*
X061124Y051715D01*
D14*
X058167Y052629D02*
X058167Y052782D01*
X058090Y052859D01*
X058090Y053012D02*
X058013Y053012D01*
X057936Y053089D01*
X057936Y053243D01*
X058013Y053319D01*
X058090Y053319D01*
X058167Y053243D01*
X058167Y053089D01*
X058090Y053012D01*
X057936Y053089D02*
X057860Y053012D01*
X057783Y053012D01*
X057706Y053089D01*
X057706Y053243D01*
X057783Y053319D01*
X057860Y053319D01*
X057936Y053243D01*
X057783Y052859D02*
X057706Y052782D01*
X057706Y052629D01*
X057783Y052552D01*
X058090Y052552D01*
X058167Y052629D01*
X056592Y052629D02*
X056592Y052782D01*
X056515Y052859D01*
X056515Y053012D02*
X056592Y053089D01*
X056592Y053243D01*
X056515Y053319D01*
X056208Y053319D01*
X056131Y053243D01*
X056131Y053089D01*
X056208Y053012D01*
X056285Y053012D01*
X056362Y053089D01*
X056362Y053319D01*
X056208Y052859D02*
X056131Y052782D01*
X056131Y052629D01*
X056208Y052552D01*
X056515Y052552D01*
X056592Y052629D01*
X055142Y037509D02*
X055142Y037202D01*
X054835Y037509D01*
X054758Y037509D01*
X054681Y037432D01*
X054681Y037279D01*
X054758Y037202D01*
X054758Y037048D02*
X054835Y037048D01*
X054912Y036972D01*
X054988Y037048D01*
X055065Y037048D01*
X055142Y036972D01*
X055142Y036818D01*
X055065Y036741D01*
X055142Y036588D02*
X054988Y036434D01*
X054988Y036511D02*
X054988Y036281D01*
X055142Y036281D02*
X054681Y036281D01*
X054681Y036511D01*
X054758Y036588D01*
X054912Y036588D01*
X054988Y036511D01*
X054758Y036741D02*
X054681Y036818D01*
X054681Y036972D01*
X054758Y037048D01*
X054912Y036972D02*
X054912Y036895D01*
X053961Y036841D02*
X053961Y036688D01*
X053884Y036611D01*
X053884Y036458D02*
X053961Y036381D01*
X053961Y036228D01*
X053884Y036151D01*
X053961Y035997D02*
X053807Y035844D01*
X053807Y035921D02*
X053807Y035690D01*
X053961Y035690D02*
X053500Y035690D01*
X053500Y035921D01*
X053577Y035997D01*
X053731Y035997D01*
X053807Y035921D01*
X053577Y036151D02*
X053500Y036228D01*
X053500Y036381D01*
X053577Y036458D01*
X053654Y036458D01*
X053731Y036381D01*
X053807Y036458D01*
X053884Y036458D01*
X053731Y036381D02*
X053731Y036304D01*
X053577Y036611D02*
X053500Y036688D01*
X053500Y036841D01*
X053577Y036918D01*
X053654Y036918D01*
X053731Y036841D01*
X053807Y036918D01*
X053884Y036918D01*
X053961Y036841D01*
X053731Y036841D02*
X053731Y036765D01*
X052780Y036765D02*
X052319Y036765D01*
X052473Y036611D01*
X052473Y036458D02*
X052549Y036381D01*
X052626Y036458D01*
X052703Y036458D01*
X052780Y036381D01*
X052780Y036228D01*
X052703Y036151D01*
X052780Y035997D02*
X052626Y035844D01*
X052626Y035921D02*
X052626Y035690D01*
X052780Y035690D02*
X052319Y035690D01*
X052319Y035921D01*
X052396Y035997D01*
X052549Y035997D01*
X052626Y035921D01*
X052396Y036151D02*
X052319Y036228D01*
X052319Y036381D01*
X052396Y036458D01*
X052473Y036458D01*
X052549Y036381D02*
X052549Y036304D01*
X052780Y036611D02*
X052780Y036918D01*
X051599Y036841D02*
X051599Y036688D01*
X051522Y036611D01*
X051599Y036458D02*
X051599Y036151D01*
X051292Y036458D01*
X051215Y036458D01*
X051138Y036381D01*
X051138Y036228D01*
X051215Y036151D01*
X051215Y035997D02*
X051368Y035997D01*
X051445Y035921D01*
X051445Y035690D01*
X051599Y035690D02*
X051138Y035690D01*
X051138Y035921D01*
X051215Y035997D01*
X051445Y035844D02*
X051599Y035997D01*
X051292Y036611D02*
X051368Y036688D01*
X051368Y036918D01*
X051215Y036918D02*
X051138Y036841D01*
X051138Y036688D01*
X051215Y036611D01*
X051292Y036611D01*
X051215Y036918D02*
X051522Y036918D01*
X051599Y036841D01*
X050417Y036818D02*
X050341Y036741D01*
X050417Y036818D02*
X050417Y036972D01*
X050341Y037048D01*
X050264Y037048D01*
X050187Y036972D01*
X050187Y036895D01*
X050187Y036972D02*
X050110Y037048D01*
X050034Y037048D01*
X049957Y036972D01*
X049957Y036818D01*
X050034Y036741D01*
X050034Y036588D02*
X050187Y036588D01*
X050264Y036511D01*
X050264Y036281D01*
X050417Y036281D02*
X049957Y036281D01*
X049957Y036511D01*
X050034Y036588D01*
X050264Y036434D02*
X050417Y036588D01*
X050341Y037202D02*
X050034Y037509D01*
X050341Y037509D01*
X050417Y037432D01*
X050417Y037279D01*
X050341Y037202D01*
X050034Y037202D01*
X049957Y037279D01*
X049957Y037432D01*
X050034Y037509D01*
X050581Y034556D02*
X050581Y034249D01*
X050351Y034479D01*
X050811Y034479D01*
X050734Y034096D02*
X050811Y034019D01*
X050811Y033865D01*
X050734Y033789D01*
X050811Y033635D02*
X050658Y033482D01*
X050658Y033558D02*
X050658Y033328D01*
X050811Y033328D02*
X050351Y033328D01*
X050351Y033558D01*
X050427Y033635D01*
X050581Y033635D01*
X050658Y033558D01*
X050427Y033789D02*
X050351Y033865D01*
X050351Y034019D01*
X050427Y034096D01*
X050504Y034096D01*
X050581Y034019D01*
X050658Y034096D01*
X050734Y034096D01*
X050581Y034019D02*
X050581Y033942D01*
X051532Y033865D02*
X051532Y034019D01*
X051609Y034096D01*
X051685Y034096D01*
X051762Y034019D01*
X051839Y034096D01*
X051915Y034096D01*
X051992Y034019D01*
X051992Y033865D01*
X051915Y033789D01*
X051992Y033635D02*
X051839Y033482D01*
X051839Y033558D02*
X051839Y033328D01*
X051992Y033328D02*
X051532Y033328D01*
X051532Y033558D01*
X051609Y033635D01*
X051762Y033635D01*
X051839Y033558D01*
X051609Y033789D02*
X051532Y033865D01*
X051762Y033942D02*
X051762Y034019D01*
X051762Y034249D02*
X051685Y034403D01*
X051685Y034479D01*
X051762Y034556D01*
X051915Y034556D01*
X051992Y034479D01*
X051992Y034326D01*
X051915Y034249D01*
X051762Y034249D02*
X051532Y034249D01*
X051532Y034556D01*
X043331Y036281D02*
X042870Y036281D01*
X042870Y036511D01*
X042947Y036588D01*
X043101Y036588D01*
X043177Y036511D01*
X043177Y036281D01*
X043177Y036434D02*
X043331Y036588D01*
X043331Y036741D02*
X043024Y037048D01*
X042947Y037048D01*
X042870Y036972D01*
X042870Y036818D01*
X042947Y036741D01*
X043331Y036741D02*
X043331Y037048D01*
X043254Y037202D02*
X043331Y037279D01*
X043331Y037432D01*
X043254Y037509D01*
X043101Y037509D01*
X043024Y037432D01*
X043024Y037355D01*
X043101Y037202D01*
X042870Y037202D01*
X042870Y037509D01*
X042150Y036841D02*
X042073Y036918D01*
X041996Y036918D01*
X041919Y036841D01*
X041919Y036611D01*
X042073Y036611D01*
X042150Y036688D01*
X042150Y036841D01*
X041919Y036611D02*
X041766Y036765D01*
X041689Y036918D01*
X041766Y036458D02*
X041689Y036381D01*
X041689Y036228D01*
X041766Y036151D01*
X041766Y035997D02*
X041919Y035997D01*
X041996Y035921D01*
X041996Y035690D01*
X042150Y035690D02*
X041689Y035690D01*
X041689Y035921D01*
X041766Y035997D01*
X041996Y035844D02*
X042150Y035997D01*
X042150Y036151D02*
X041843Y036458D01*
X041766Y036458D01*
X042150Y036458D02*
X042150Y036151D01*
X040969Y036151D02*
X040662Y036458D01*
X040585Y036458D01*
X040508Y036381D01*
X040508Y036228D01*
X040585Y036151D01*
X040585Y035997D02*
X040738Y035997D01*
X040815Y035921D01*
X040815Y035690D01*
X040969Y035690D02*
X040508Y035690D01*
X040508Y035921D01*
X040585Y035997D01*
X040815Y035844D02*
X040969Y035997D01*
X040969Y036151D02*
X040969Y036458D01*
X040738Y036611D02*
X040738Y036918D01*
X040508Y036841D02*
X040738Y036611D01*
X040969Y036841D02*
X040508Y036841D01*
X039787Y036918D02*
X039787Y036611D01*
X039481Y036918D01*
X039404Y036918D01*
X039327Y036841D01*
X039327Y036688D01*
X039404Y036611D01*
X039404Y036458D02*
X039327Y036381D01*
X039327Y036228D01*
X039404Y036151D01*
X039404Y035997D02*
X039557Y035997D01*
X039634Y035921D01*
X039634Y035690D01*
X039787Y035690D02*
X039327Y035690D01*
X039327Y035921D01*
X039404Y035997D01*
X039634Y035844D02*
X039787Y035997D01*
X039787Y036151D02*
X039481Y036458D01*
X039404Y036458D01*
X039787Y036458D02*
X039787Y036151D01*
X038606Y036281D02*
X038146Y036281D01*
X038146Y036511D01*
X038223Y036588D01*
X038376Y036588D01*
X038453Y036511D01*
X038453Y036281D01*
X038453Y036434D02*
X038606Y036588D01*
X038606Y036741D02*
X038299Y037048D01*
X038223Y037048D01*
X038146Y036972D01*
X038146Y036818D01*
X038223Y036741D01*
X038606Y036741D02*
X038606Y037048D01*
X038530Y037202D02*
X038606Y037279D01*
X038606Y037432D01*
X038530Y037509D01*
X038453Y037509D01*
X038376Y037432D01*
X038376Y037355D01*
X038376Y037432D02*
X038299Y037509D01*
X038223Y037509D01*
X038146Y037432D01*
X038146Y037279D01*
X038223Y037202D01*
X041296Y034479D02*
X041372Y034556D01*
X041449Y034556D01*
X041526Y034479D01*
X041526Y034326D01*
X041449Y034249D01*
X041372Y034249D01*
X041296Y034326D01*
X041296Y034479D01*
X041526Y034479D02*
X041603Y034556D01*
X041679Y034556D01*
X041756Y034479D01*
X041756Y034326D01*
X041679Y034249D01*
X041603Y034249D01*
X041526Y034326D01*
X041449Y034096D02*
X041372Y034096D01*
X041296Y034019D01*
X041296Y033865D01*
X041372Y033789D01*
X041372Y033635D02*
X041526Y033635D01*
X041603Y033558D01*
X041603Y033328D01*
X041756Y033328D02*
X041296Y033328D01*
X041296Y033558D01*
X041372Y033635D01*
X041603Y033482D02*
X041756Y033635D01*
X041756Y033789D02*
X041449Y034096D01*
X041756Y034096D02*
X041756Y033789D01*
X042477Y033865D02*
X042477Y034019D01*
X042553Y034096D01*
X042630Y034096D01*
X042937Y033789D01*
X042937Y034096D01*
X042937Y034249D02*
X042860Y034249D01*
X042553Y034556D01*
X042477Y034556D01*
X042477Y034249D01*
X042477Y033865D02*
X042553Y033789D01*
X042553Y033635D02*
X042707Y033635D01*
X042784Y033558D01*
X042784Y033328D01*
X042937Y033328D02*
X042477Y033328D01*
X042477Y033558D01*
X042553Y033635D01*
X042784Y033482D02*
X042937Y033635D01*
X035442Y027167D02*
X035366Y027244D01*
X035212Y027244D01*
X035136Y027167D01*
X034982Y027167D02*
X034905Y027244D01*
X034752Y027244D01*
X034675Y027167D01*
X034675Y026861D01*
X034752Y026784D01*
X034905Y026784D01*
X034982Y026861D01*
X035136Y026784D02*
X035442Y027091D01*
X035442Y027167D01*
X035442Y026784D02*
X035136Y026784D01*
X028370Y033328D02*
X027910Y033328D01*
X027910Y033558D01*
X027986Y033635D01*
X028140Y033635D01*
X028217Y033558D01*
X028217Y033328D01*
X028217Y033482D02*
X028370Y033635D01*
X028370Y033789D02*
X028063Y034096D01*
X027986Y034096D01*
X027910Y034019D01*
X027910Y033865D01*
X027986Y033789D01*
X028370Y033789D02*
X028370Y034096D01*
X028370Y034249D02*
X028370Y034556D01*
X028370Y034403D02*
X027910Y034403D01*
X028063Y034249D01*
X027189Y034326D02*
X027112Y034249D01*
X026805Y034556D01*
X027112Y034556D01*
X027189Y034479D01*
X027189Y034326D01*
X027112Y034249D02*
X026805Y034249D01*
X026729Y034326D01*
X026729Y034479D01*
X026805Y034556D01*
X026805Y034096D02*
X026729Y034019D01*
X026729Y033865D01*
X026805Y033789D01*
X026805Y033635D02*
X026959Y033635D01*
X027036Y033558D01*
X027036Y033328D01*
X027189Y033328D02*
X026729Y033328D01*
X026729Y033558D01*
X026805Y033635D01*
X027036Y033482D02*
X027189Y033635D01*
X027189Y033789D02*
X026882Y034096D01*
X026805Y034096D01*
X027189Y034096D02*
X027189Y033789D01*
X027516Y035690D02*
X027516Y035921D01*
X027593Y035997D01*
X027746Y035997D01*
X027823Y035921D01*
X027823Y035690D01*
X027976Y035690D02*
X027516Y035690D01*
X027823Y035844D02*
X027976Y035997D01*
X027976Y036151D02*
X027976Y036458D01*
X027976Y036304D02*
X027516Y036304D01*
X027670Y036151D01*
X027746Y036611D02*
X027670Y036765D01*
X027670Y036841D01*
X027746Y036918D01*
X027900Y036918D01*
X027976Y036841D01*
X027976Y036688D01*
X027900Y036611D01*
X027746Y036611D02*
X027516Y036611D01*
X027516Y036918D01*
X026795Y036895D02*
X026335Y036895D01*
X026488Y036741D01*
X026412Y036588D02*
X026565Y036588D01*
X026642Y036511D01*
X026642Y036281D01*
X026795Y036281D02*
X026335Y036281D01*
X026335Y036511D01*
X026412Y036588D01*
X026642Y036434D02*
X026795Y036588D01*
X026795Y036741D02*
X026795Y037048D01*
X026719Y037202D02*
X026795Y037279D01*
X026795Y037432D01*
X026719Y037509D01*
X026642Y037509D01*
X026565Y037432D01*
X026565Y037202D01*
X026719Y037202D01*
X026565Y037202D02*
X026412Y037355D01*
X026335Y037509D01*
X028697Y036918D02*
X028697Y036611D01*
X028697Y036304D02*
X029158Y036304D01*
X029158Y036151D02*
X029158Y036458D01*
X029158Y036611D02*
X029081Y036611D01*
X028774Y036918D01*
X028697Y036918D01*
X028697Y036304D02*
X028851Y036151D01*
X028927Y035997D02*
X029004Y035921D01*
X029004Y035690D01*
X029158Y035690D02*
X028697Y035690D01*
X028697Y035921D01*
X028774Y035997D01*
X028927Y035997D01*
X029004Y035844D02*
X029158Y035997D01*
X029878Y035921D02*
X029955Y035997D01*
X030108Y035997D01*
X030185Y035921D01*
X030185Y035690D01*
X030339Y035690D02*
X029878Y035690D01*
X029878Y035921D01*
X030032Y036151D02*
X029878Y036304D01*
X030339Y036304D01*
X030339Y036151D02*
X030339Y036458D01*
X030262Y036611D02*
X030339Y036688D01*
X030339Y036841D01*
X030262Y036918D01*
X029955Y036918D01*
X029878Y036841D01*
X029878Y036688D01*
X029955Y036611D01*
X030032Y036611D01*
X030108Y036688D01*
X030108Y036918D01*
X031059Y036895D02*
X031213Y036741D01*
X031136Y036588D02*
X031290Y036588D01*
X031366Y036511D01*
X031366Y036281D01*
X031366Y036434D02*
X031520Y036588D01*
X031520Y036741D02*
X031520Y037048D01*
X031520Y036895D02*
X031059Y036895D01*
X031136Y037202D02*
X031213Y037202D01*
X031290Y037279D01*
X031290Y037432D01*
X031366Y037509D01*
X031443Y037509D01*
X031520Y037432D01*
X031520Y037279D01*
X031443Y037202D01*
X031366Y037202D01*
X031290Y037279D01*
X031290Y037432D02*
X031213Y037509D01*
X031136Y037509D01*
X031059Y037432D01*
X031059Y037279D01*
X031136Y037202D01*
X031136Y036588D02*
X031059Y036511D01*
X031059Y036281D01*
X031520Y036281D01*
X030339Y035997D02*
X030185Y035844D01*
X019709Y036281D02*
X019248Y036281D01*
X019248Y036511D01*
X019325Y036588D01*
X019479Y036588D01*
X019555Y036511D01*
X019555Y036281D01*
X019555Y036434D02*
X019709Y036588D01*
X019709Y036741D02*
X019709Y037048D01*
X019709Y036895D02*
X019248Y036895D01*
X019402Y036741D01*
X019402Y037202D02*
X019248Y037355D01*
X019709Y037355D01*
X019709Y037202D02*
X019709Y037509D01*
X018528Y036918D02*
X018528Y036611D01*
X018221Y036918D01*
X018144Y036918D01*
X018067Y036841D01*
X018067Y036688D01*
X018144Y036611D01*
X018067Y036304D02*
X018528Y036304D01*
X018528Y036151D02*
X018528Y036458D01*
X018221Y036151D02*
X018067Y036304D01*
X018144Y035997D02*
X018297Y035997D01*
X018374Y035921D01*
X018374Y035690D01*
X018528Y035690D02*
X018067Y035690D01*
X018067Y035921D01*
X018144Y035997D01*
X018374Y035844D02*
X018528Y035997D01*
X017347Y035997D02*
X017193Y035844D01*
X017193Y035921D02*
X017193Y035690D01*
X017347Y035690D02*
X016886Y035690D01*
X016886Y035921D01*
X016963Y035997D01*
X017116Y035997D01*
X017193Y035921D01*
X017040Y036151D02*
X016886Y036304D01*
X017347Y036304D01*
X017347Y036151D02*
X017347Y036458D01*
X017270Y036611D02*
X016963Y036918D01*
X017270Y036918D01*
X017347Y036841D01*
X017347Y036688D01*
X017270Y036611D01*
X016963Y036611D01*
X016886Y036688D01*
X016886Y036841D01*
X016963Y036918D01*
X016165Y036381D02*
X016165Y036228D01*
X016089Y036151D01*
X016012Y036151D01*
X015935Y036228D01*
X015935Y036381D01*
X016012Y036458D01*
X016089Y036458D01*
X016165Y036381D01*
X015935Y036381D02*
X015859Y036458D01*
X015782Y036458D01*
X015705Y036381D01*
X015705Y036228D01*
X015782Y036151D01*
X015859Y036151D01*
X015935Y036228D01*
X015935Y035997D02*
X016012Y035921D01*
X016012Y035690D01*
X016165Y035690D02*
X015705Y035690D01*
X015705Y035921D01*
X015782Y035997D01*
X015935Y035997D01*
X016012Y035844D02*
X016165Y035997D01*
X014984Y036281D02*
X014524Y036281D01*
X014524Y036511D01*
X014601Y036588D01*
X014754Y036588D01*
X014831Y036511D01*
X014831Y036281D01*
X014831Y036434D02*
X014984Y036588D01*
X014908Y036741D02*
X014984Y036818D01*
X014984Y036972D01*
X014908Y037048D01*
X014601Y037048D01*
X014524Y036972D01*
X014524Y036818D01*
X014601Y036741D01*
X014677Y036741D01*
X014754Y036818D01*
X014754Y037048D01*
X017674Y034282D02*
X017904Y034052D01*
X017904Y034359D01*
X018134Y034282D02*
X017674Y034282D01*
X017674Y033745D02*
X018134Y033745D01*
X018134Y033592D02*
X018134Y033899D01*
X017827Y033592D02*
X017674Y033745D01*
X017750Y033438D02*
X017904Y033438D01*
X017980Y033362D01*
X017980Y033131D01*
X017980Y033285D02*
X018134Y033438D01*
X018134Y033131D02*
X017674Y033131D01*
X017674Y033362D01*
X017750Y033438D01*
X018855Y033362D02*
X018931Y033438D01*
X019085Y033438D01*
X019162Y033362D01*
X019162Y033131D01*
X019315Y033131D02*
X018855Y033131D01*
X018855Y033362D01*
X019008Y033592D02*
X018855Y033745D01*
X019315Y033745D01*
X019315Y033592D02*
X019315Y033899D01*
X019238Y034052D02*
X019315Y034129D01*
X019315Y034282D01*
X019238Y034359D01*
X019162Y034359D01*
X019085Y034282D01*
X019085Y034206D01*
X019085Y034282D02*
X019008Y034359D01*
X018931Y034359D01*
X018855Y034282D01*
X018855Y034129D01*
X018931Y034052D01*
X019315Y033438D02*
X019162Y033285D01*
X012395Y027675D02*
X012318Y027752D01*
X012165Y027752D01*
X012088Y027675D01*
X011935Y027675D02*
X011858Y027752D01*
X011705Y027752D01*
X011628Y027675D01*
X011628Y027368D01*
X011705Y027292D01*
X011858Y027292D01*
X011935Y027368D01*
X012088Y027368D02*
X012165Y027292D01*
X012318Y027292D01*
X012395Y027368D01*
X012395Y027445D01*
X012318Y027522D01*
X012242Y027522D01*
X012318Y027522D02*
X012395Y027599D01*
X012395Y027675D01*
X013679Y022588D02*
X013679Y022067D01*
X013506Y022067D02*
X013853Y022067D01*
X014021Y022154D02*
X014108Y022067D01*
X014282Y022067D01*
X014368Y022154D01*
X014368Y022501D01*
X014282Y022588D01*
X014108Y022588D01*
X014021Y022501D01*
X014021Y022414D01*
X014108Y022327D01*
X014368Y022327D01*
X013679Y022588D02*
X013506Y022414D01*
X012990Y021910D02*
X012644Y021563D01*
X012730Y021477D01*
X012904Y021477D01*
X012990Y021563D01*
X012990Y021910D01*
X012904Y021997D01*
X012730Y021997D01*
X012644Y021910D01*
X012644Y021563D01*
X012475Y021477D02*
X012128Y021477D01*
X012475Y021824D01*
X012475Y021910D01*
X012388Y021997D01*
X012215Y021997D01*
X012128Y021910D01*
X011824Y020756D02*
X011671Y020756D01*
X011747Y020756D02*
X011747Y020296D01*
X011671Y020296D02*
X011824Y020296D01*
X011517Y020372D02*
X011441Y020296D01*
X011287Y020296D01*
X011210Y020372D01*
X011057Y020372D02*
X010980Y020296D01*
X010827Y020296D01*
X010750Y020372D01*
X010750Y020679D01*
X010827Y020756D01*
X010980Y020756D01*
X011057Y020679D01*
X011057Y020372D01*
X011057Y020296D02*
X010903Y020449D01*
X011210Y020526D02*
X011364Y020603D01*
X011441Y020603D01*
X011517Y020526D01*
X011517Y020372D01*
X011210Y020526D02*
X011210Y020756D01*
X011517Y020756D01*
X011627Y019772D02*
X011781Y019618D01*
X011781Y019311D01*
X011781Y019542D02*
X011474Y019542D01*
X011474Y019618D02*
X011627Y019772D01*
X011474Y019618D02*
X011474Y019311D01*
X011320Y019388D02*
X011244Y019311D01*
X011090Y019311D01*
X011013Y019388D01*
X010860Y019388D02*
X010783Y019311D01*
X010630Y019311D01*
X010553Y019388D01*
X010553Y019695D01*
X010630Y019772D01*
X010783Y019772D01*
X010860Y019695D01*
X010860Y019388D01*
X010860Y019311D02*
X010707Y019465D01*
X011013Y019542D02*
X011167Y019618D01*
X011244Y019618D01*
X011320Y019542D01*
X011320Y019388D01*
X011013Y019542D02*
X011013Y019772D01*
X011320Y019772D01*
X011244Y018787D02*
X011013Y018557D01*
X011320Y018557D01*
X011474Y018557D02*
X011704Y018557D01*
X011781Y018481D01*
X011781Y018404D01*
X011704Y018327D01*
X011474Y018327D01*
X011474Y018787D01*
X011704Y018787D01*
X011781Y018711D01*
X011781Y018634D01*
X011704Y018557D01*
X011244Y018327D02*
X011244Y018787D01*
X010860Y018711D02*
X010860Y018404D01*
X010783Y018327D01*
X010630Y018327D01*
X010553Y018404D01*
X010553Y018711D01*
X010630Y018787D01*
X010783Y018787D01*
X010860Y018711D01*
X010707Y018481D02*
X010860Y018327D01*
X010840Y018000D02*
X010686Y018000D01*
X010763Y018000D02*
X010763Y017540D01*
X010686Y017540D02*
X010840Y017540D01*
X010533Y017616D02*
X010456Y017540D01*
X010303Y017540D01*
X010226Y017616D01*
X010073Y017616D02*
X009996Y017540D01*
X009842Y017540D01*
X009766Y017616D01*
X009766Y017923D01*
X009842Y018000D01*
X009996Y018000D01*
X010073Y017923D01*
X010073Y017616D01*
X010073Y017540D02*
X009919Y017693D01*
X010226Y017923D02*
X010303Y018000D01*
X010456Y018000D01*
X010533Y017923D01*
X010533Y017847D01*
X010456Y017770D01*
X010533Y017693D01*
X010533Y017616D01*
X010456Y017770D02*
X010380Y017770D01*
X010630Y016819D02*
X010783Y016819D01*
X010860Y016742D01*
X010860Y016435D01*
X010783Y016359D01*
X010630Y016359D01*
X010553Y016435D01*
X010553Y016742D01*
X010630Y016819D01*
X010707Y016512D02*
X010860Y016359D01*
X011013Y016435D02*
X011090Y016359D01*
X011244Y016359D01*
X011320Y016435D01*
X011320Y016512D01*
X011244Y016589D01*
X011167Y016589D01*
X011244Y016589D02*
X011320Y016666D01*
X011320Y016742D01*
X011244Y016819D01*
X011090Y016819D01*
X011013Y016742D01*
X011474Y016666D02*
X011474Y016359D01*
X011474Y016589D02*
X011781Y016589D01*
X011781Y016666D02*
X011781Y016359D01*
X011781Y016666D02*
X011627Y016819D01*
X011474Y016666D01*
X011474Y015835D02*
X011704Y015835D01*
X011781Y015758D01*
X011781Y015681D01*
X011704Y015605D01*
X011474Y015605D01*
X011320Y015681D02*
X011320Y015758D01*
X011244Y015835D01*
X011090Y015835D01*
X011013Y015758D01*
X010860Y015758D02*
X010860Y015451D01*
X010783Y015374D01*
X010630Y015374D01*
X010553Y015451D01*
X010553Y015758D01*
X010630Y015835D01*
X010783Y015835D01*
X010860Y015758D01*
X010707Y015528D02*
X010860Y015374D01*
X011013Y015374D02*
X011320Y015681D01*
X011474Y015835D02*
X011474Y015374D01*
X011704Y015374D01*
X011781Y015451D01*
X011781Y015528D01*
X011704Y015605D01*
X011320Y015374D02*
X011013Y015374D01*
X011167Y015047D02*
X011167Y014587D01*
X011320Y014587D02*
X011013Y014587D01*
X010860Y014587D02*
X010707Y014740D01*
X010860Y014664D02*
X010860Y014971D01*
X010783Y015047D01*
X010630Y015047D01*
X010553Y014971D01*
X010553Y014664D01*
X010630Y014587D01*
X010783Y014587D01*
X010860Y014664D01*
X011013Y014894D02*
X011167Y015047D01*
X011474Y015047D02*
X011627Y015047D01*
X011551Y015047D02*
X011551Y014587D01*
X011627Y014587D02*
X011474Y014587D01*
X011627Y013866D02*
X011781Y013713D01*
X011781Y013406D01*
X011781Y013636D02*
X011474Y013636D01*
X011474Y013713D02*
X011627Y013866D01*
X011474Y013713D02*
X011474Y013406D01*
X011320Y013406D02*
X011013Y013406D01*
X010860Y013406D02*
X010707Y013559D01*
X010860Y013483D02*
X010783Y013406D01*
X010630Y013406D01*
X010553Y013483D01*
X010553Y013789D01*
X010630Y013866D01*
X010783Y013866D01*
X010860Y013789D01*
X010860Y013483D01*
X011013Y013713D02*
X011167Y013866D01*
X011167Y013406D01*
X010917Y012882D02*
X010993Y012805D01*
X010993Y012729D01*
X010917Y012652D01*
X010686Y012652D01*
X010533Y012805D02*
X010226Y012498D01*
X010303Y012422D01*
X010456Y012422D01*
X010533Y012498D01*
X010533Y012805D01*
X010456Y012882D01*
X010303Y012882D01*
X010226Y012805D01*
X010226Y012498D01*
X010073Y012498D02*
X009996Y012422D01*
X009842Y012422D01*
X009766Y012498D01*
X009766Y012805D01*
X009842Y012882D01*
X009996Y012882D01*
X010073Y012805D01*
X010073Y012498D01*
X010073Y012422D02*
X009919Y012575D01*
X010029Y011898D02*
X010336Y011437D01*
X010336Y011898D01*
X010490Y011898D02*
X010720Y011898D01*
X010797Y011821D01*
X010797Y011514D01*
X010720Y011437D01*
X010490Y011437D01*
X010490Y011898D01*
X010029Y011898D02*
X010029Y011437D01*
X009876Y011514D02*
X009876Y011668D01*
X009722Y011668D01*
X009569Y011821D02*
X009569Y011514D01*
X009646Y011437D01*
X009799Y011437D01*
X009876Y011514D01*
X009876Y011821D02*
X009799Y011898D01*
X009646Y011898D01*
X009569Y011821D01*
X010686Y012422D02*
X010686Y012882D01*
X010917Y012882D01*
X010917Y012652D02*
X010993Y012575D01*
X010993Y012498D01*
X010917Y012422D01*
X010686Y012422D01*
X014293Y012498D02*
X014370Y012422D01*
X014523Y012422D01*
X014600Y012498D01*
X014600Y012805D01*
X014523Y012882D01*
X014370Y012882D01*
X014293Y012805D01*
X014293Y012498D01*
X014447Y012575D02*
X014600Y012422D01*
X014754Y012498D02*
X014830Y012422D01*
X014984Y012422D01*
X015061Y012498D01*
X015061Y012805D01*
X014754Y012498D01*
X014754Y012805D01*
X014830Y012882D01*
X014984Y012882D01*
X015061Y012805D01*
X015214Y012729D02*
X015367Y012882D01*
X015521Y012729D01*
X015521Y012422D01*
X015521Y012652D02*
X015214Y012652D01*
X015214Y012729D02*
X015214Y012422D01*
X015291Y011898D02*
X015444Y011898D01*
X015521Y011821D01*
X015521Y011744D01*
X015444Y011668D01*
X015521Y011591D01*
X015521Y011514D01*
X015444Y011437D01*
X015291Y011437D01*
X015214Y011514D01*
X015061Y011591D02*
X015061Y011898D01*
X015214Y011821D02*
X015291Y011898D01*
X015367Y011668D02*
X015444Y011668D01*
X015061Y011591D02*
X014907Y011437D01*
X014754Y011591D01*
X014754Y011898D01*
X014600Y011821D02*
X014523Y011898D01*
X014370Y011898D01*
X014293Y011821D01*
X014447Y011668D02*
X014523Y011668D01*
X014600Y011591D01*
X014600Y011514D01*
X014523Y011437D01*
X014370Y011437D01*
X014293Y011514D01*
X014523Y011668D02*
X014600Y011744D01*
X014600Y011821D01*
X014600Y013406D02*
X014447Y013559D01*
X014600Y013483D02*
X014523Y013406D01*
X014370Y013406D01*
X014293Y013483D01*
X014293Y013789D01*
X014370Y013866D01*
X014523Y013866D01*
X014600Y013789D01*
X014600Y013483D01*
X014754Y013483D02*
X015061Y013789D01*
X015061Y013483D01*
X014984Y013406D01*
X014830Y013406D01*
X014754Y013483D01*
X014754Y013789D01*
X014830Y013866D01*
X014984Y013866D01*
X015061Y013789D01*
X015214Y013866D02*
X015367Y013866D01*
X015291Y013866D02*
X015291Y013406D01*
X015367Y013406D02*
X015214Y013406D01*
X015214Y014390D02*
X015444Y014390D01*
X015521Y014467D01*
X015521Y014544D01*
X015444Y014620D01*
X015214Y014620D01*
X015214Y014390D02*
X015214Y014850D01*
X015444Y014850D01*
X015521Y014774D01*
X015521Y014697D01*
X015444Y014620D01*
X015061Y014390D02*
X014754Y014390D01*
X014907Y014390D02*
X014907Y014850D01*
X014754Y014697D01*
X014600Y014774D02*
X014600Y014467D01*
X014523Y014390D01*
X014370Y014390D01*
X014293Y014467D01*
X014293Y014774D01*
X014370Y014850D01*
X014523Y014850D01*
X014600Y014774D01*
X014447Y014544D02*
X014600Y014390D01*
X014600Y015374D02*
X014447Y015528D01*
X014600Y015451D02*
X014523Y015374D01*
X014370Y015374D01*
X014293Y015451D01*
X014293Y015758D01*
X014370Y015835D01*
X014523Y015835D01*
X014600Y015758D01*
X014600Y015451D01*
X014754Y015374D02*
X015061Y015681D01*
X015061Y015758D01*
X014984Y015835D01*
X014830Y015835D01*
X014754Y015758D01*
X014754Y015374D02*
X015061Y015374D01*
X015214Y015374D02*
X015214Y015681D01*
X015367Y015835D01*
X015521Y015681D01*
X015521Y015374D01*
X015521Y015605D02*
X015214Y015605D01*
X015214Y016555D02*
X015367Y016555D01*
X015291Y016555D02*
X015291Y017016D01*
X015367Y017016D02*
X015214Y017016D01*
X015061Y016939D02*
X014984Y017016D01*
X014830Y017016D01*
X014754Y016939D01*
X014600Y016939D02*
X014600Y016632D01*
X014523Y016555D01*
X014370Y016555D01*
X014293Y016632D01*
X014293Y016939D01*
X014370Y017016D01*
X014523Y017016D01*
X014600Y016939D01*
X014447Y016709D02*
X014600Y016555D01*
X014754Y016555D02*
X015061Y016862D01*
X015061Y016939D01*
X015061Y016555D02*
X014754Y016555D01*
X014830Y017540D02*
X014754Y017616D01*
X014830Y017540D02*
X014984Y017540D01*
X015061Y017616D01*
X015061Y017693D01*
X014984Y017770D01*
X014907Y017770D01*
X014984Y017770D02*
X015061Y017847D01*
X015061Y017923D01*
X014984Y018000D01*
X014830Y018000D01*
X014754Y017923D01*
X014600Y017923D02*
X014600Y017616D01*
X014523Y017540D01*
X014370Y017540D01*
X014293Y017616D01*
X014293Y017923D01*
X014370Y018000D01*
X014523Y018000D01*
X014600Y017923D01*
X014447Y017693D02*
X014600Y017540D01*
X015214Y017540D02*
X015214Y018000D01*
X015444Y018000D01*
X015521Y017923D01*
X015521Y017847D01*
X015444Y017770D01*
X015214Y017770D01*
X015444Y017770D02*
X015521Y017693D01*
X015521Y017616D01*
X015444Y017540D01*
X015214Y017540D01*
X015214Y018524D02*
X015214Y018831D01*
X015367Y018984D01*
X015521Y018831D01*
X015521Y018524D01*
X015521Y018754D02*
X015214Y018754D01*
X015061Y018754D02*
X014754Y018754D01*
X014984Y018984D01*
X014984Y018524D01*
X014600Y018524D02*
X014447Y018677D01*
X014523Y018524D02*
X014370Y018524D01*
X014293Y018601D01*
X014293Y018908D01*
X014370Y018984D01*
X014523Y018984D01*
X014600Y018908D01*
X014600Y018601D01*
X014523Y018524D01*
X014523Y019508D02*
X014370Y019508D01*
X014293Y019585D01*
X014293Y019892D01*
X014370Y019969D01*
X014523Y019969D01*
X014600Y019892D01*
X014600Y019585D01*
X014523Y019508D01*
X014600Y019508D02*
X014447Y019662D01*
X014754Y019738D02*
X015061Y019738D01*
X014984Y019508D02*
X014984Y019969D01*
X014754Y019738D01*
X015214Y019508D02*
X015367Y019508D01*
X015291Y019508D02*
X015291Y019969D01*
X015367Y019969D02*
X015214Y019969D01*
X015214Y020492D02*
X015444Y020492D01*
X015521Y020569D01*
X015521Y020646D01*
X015444Y020723D01*
X015214Y020723D01*
X015061Y020723D02*
X015061Y020569D01*
X014984Y020492D01*
X014830Y020492D01*
X014754Y020569D01*
X014754Y020723D02*
X014907Y020799D01*
X014984Y020799D01*
X015061Y020723D01*
X015061Y020953D02*
X014754Y020953D01*
X014754Y020723D01*
X014600Y020876D02*
X014600Y020569D01*
X014523Y020492D01*
X014370Y020492D01*
X014293Y020569D01*
X014293Y020876D01*
X014370Y020953D01*
X014523Y020953D01*
X014600Y020876D01*
X014447Y020646D02*
X014600Y020492D01*
X015214Y020492D02*
X015214Y020953D01*
X015444Y020953D01*
X015521Y020876D01*
X015521Y020799D01*
X015444Y020723D01*
X020147Y008594D02*
X020608Y008594D01*
X020608Y008441D02*
X020608Y008748D01*
X020301Y008441D02*
X020147Y008594D01*
X020224Y008287D02*
X020147Y008211D01*
X020147Y008057D01*
X020224Y007980D01*
X020301Y007980D01*
X020377Y008057D01*
X020377Y008211D01*
X020454Y008287D01*
X020531Y008287D01*
X020608Y008211D01*
X020608Y008057D01*
X020531Y007980D01*
X020531Y007827D02*
X020147Y007827D01*
X020147Y007520D02*
X020531Y007520D01*
X020608Y007597D01*
X020608Y007750D01*
X020531Y007827D01*
X020684Y008134D02*
X020070Y008134D01*
X005684Y008134D02*
X005070Y008134D01*
X005147Y008211D02*
X005224Y008287D01*
X005147Y008211D02*
X005147Y008057D01*
X005224Y007980D01*
X005301Y007980D01*
X005377Y008057D01*
X005377Y008211D01*
X005454Y008287D01*
X005531Y008287D01*
X005608Y008211D01*
X005608Y008057D01*
X005531Y007980D01*
X005531Y007827D02*
X005147Y007827D01*
X005147Y007520D02*
X005531Y007520D01*
X005608Y007597D01*
X005608Y007750D01*
X005531Y007827D01*
X005608Y008441D02*
X005608Y008748D01*
X005608Y008594D02*
X005147Y008594D01*
X005301Y008441D01*
X004748Y033328D02*
X004288Y033328D01*
X004288Y033558D01*
X004364Y033635D01*
X004518Y033635D01*
X004595Y033558D01*
X004595Y033328D01*
X004595Y033482D02*
X004748Y033635D01*
X004748Y033789D02*
X004671Y033789D01*
X004364Y034096D01*
X004288Y034096D01*
X004288Y033789D01*
X003567Y033865D02*
X003567Y034019D01*
X003490Y034096D01*
X003414Y034096D01*
X003337Y034019D01*
X003337Y033789D01*
X003490Y033789D01*
X003567Y033865D01*
X003567Y033635D02*
X003414Y033482D01*
X003414Y033558D02*
X003414Y033328D01*
X003567Y033328D02*
X003107Y033328D01*
X003107Y033558D01*
X003183Y033635D01*
X003337Y033635D01*
X003414Y033558D01*
X003337Y033789D02*
X003183Y033942D01*
X003107Y034096D01*
X003894Y035690D02*
X003894Y035921D01*
X003971Y035997D01*
X004124Y035997D01*
X004201Y035921D01*
X004201Y035690D01*
X004354Y035690D02*
X003894Y035690D01*
X004201Y035844D02*
X004354Y035997D01*
X004354Y036151D02*
X004354Y036458D01*
X004354Y036304D02*
X003894Y036304D01*
X004047Y036151D01*
X003173Y036281D02*
X002713Y036281D01*
X002713Y036511D01*
X002790Y036588D01*
X002943Y036588D01*
X003020Y036511D01*
X003020Y036281D01*
X003020Y036434D02*
X003173Y036588D01*
X003173Y036741D02*
X002866Y037048D01*
X002790Y037048D01*
X002713Y036972D01*
X002713Y036818D01*
X002790Y036741D01*
X003173Y036741D02*
X003173Y037048D01*
X005075Y036381D02*
X005152Y036458D01*
X005229Y036458D01*
X005305Y036381D01*
X005382Y036458D01*
X005459Y036458D01*
X005536Y036381D01*
X005536Y036228D01*
X005459Y036151D01*
X005536Y035997D02*
X005382Y035844D01*
X005382Y035921D02*
X005382Y035690D01*
X005536Y035690D02*
X005075Y035690D01*
X005075Y035921D01*
X005152Y035997D01*
X005305Y035997D01*
X005382Y035921D01*
X005152Y036151D02*
X005075Y036228D01*
X005075Y036381D01*
X005305Y036381D02*
X005305Y036304D01*
X006256Y036151D02*
X006486Y036151D01*
X006410Y036304D01*
X006410Y036381D01*
X006486Y036458D01*
X006640Y036458D01*
X006717Y036381D01*
X006717Y036228D01*
X006640Y036151D01*
X006717Y035997D02*
X006563Y035844D01*
X006563Y035921D02*
X006563Y035690D01*
X006717Y035690D02*
X006256Y035690D01*
X006256Y035921D01*
X006333Y035997D01*
X006486Y035997D01*
X006563Y035921D01*
X006256Y036151D02*
X006256Y036458D01*
X007437Y036511D02*
X007514Y036588D01*
X007668Y036588D01*
X007744Y036511D01*
X007744Y036281D01*
X007744Y036434D02*
X007898Y036588D01*
X007668Y036741D02*
X007668Y037048D01*
X007898Y036972D02*
X007437Y036972D01*
X007668Y036741D01*
X007437Y036511D02*
X007437Y036281D01*
X007898Y036281D01*
X009047Y052206D02*
X009354Y052206D01*
X009430Y052282D01*
X009430Y052436D01*
X009354Y052512D01*
X009354Y052666D02*
X009047Y052973D01*
X008970Y052973D01*
X008970Y052666D01*
X009047Y052512D02*
X008970Y052436D01*
X008970Y052282D01*
X009047Y052206D01*
X009354Y052666D02*
X009430Y052666D01*
X057100Y024329D02*
X057100Y024022D01*
X057177Y023945D01*
X057331Y023945D01*
X057407Y024022D01*
X057561Y023945D02*
X057868Y023945D01*
X057714Y023945D02*
X057714Y024406D01*
X057561Y024252D01*
X057407Y024329D02*
X057331Y024406D01*
X057177Y024406D01*
X057100Y024329D01*
X061234Y018894D02*
X061464Y018894D01*
X061541Y018817D01*
X061541Y018664D01*
X061464Y018587D01*
X061234Y018587D01*
X061234Y018433D02*
X061234Y018894D01*
X061388Y018587D02*
X061541Y018433D01*
X061695Y018664D02*
X062001Y018664D01*
X062155Y018817D02*
X062232Y018894D01*
X062385Y018894D01*
X062462Y018817D01*
X062462Y018740D01*
X062385Y018664D01*
X062462Y018587D01*
X062462Y018510D01*
X062385Y018433D01*
X062232Y018433D01*
X062155Y018510D01*
X062308Y018664D02*
X062385Y018664D01*
X061925Y018433D02*
X061925Y018894D01*
X061695Y018664D01*
X063937Y018280D02*
X063937Y017973D01*
X064014Y017896D01*
X064167Y017896D01*
X064244Y017973D01*
X064244Y018280D01*
X064167Y018356D01*
X064014Y018356D01*
X063937Y018280D01*
X064090Y018049D02*
X064244Y017896D01*
X064397Y017896D02*
X064704Y017896D01*
X064551Y017896D02*
X064551Y018356D01*
X064397Y018203D01*
X064054Y020477D02*
X063671Y020477D01*
X063671Y020784D02*
X064054Y020784D01*
X064131Y020707D01*
X064131Y020553D01*
X064054Y020477D01*
X064054Y020937D02*
X064131Y021014D01*
X064131Y021167D01*
X064054Y021244D01*
X063978Y021244D01*
X063901Y021167D01*
X063901Y021014D01*
X063824Y020937D01*
X063748Y020937D01*
X063671Y021014D01*
X063671Y021167D01*
X063748Y021244D01*
X063824Y021397D02*
X063671Y021551D01*
X064131Y021551D01*
X064131Y021704D02*
X064131Y021397D01*
X064208Y021091D02*
X063594Y021091D01*
X063824Y021858D02*
X063671Y022011D01*
X064131Y022011D01*
X064131Y021858D02*
X064131Y022165D01*
X061588Y016025D02*
X061127Y016025D01*
X061358Y015795D01*
X061358Y016102D01*
X061358Y015642D02*
X061358Y015335D01*
X061127Y015565D01*
X061588Y015565D01*
X061588Y015181D02*
X061434Y015028D01*
X061434Y015105D02*
X061434Y014874D01*
X061588Y014874D02*
X061127Y014874D01*
X061127Y015105D01*
X061204Y015181D01*
X061358Y015181D01*
X061434Y015105D01*
X063513Y011839D02*
X063820Y011532D01*
X063897Y011609D01*
X063897Y011762D01*
X063820Y011839D01*
X063513Y011839D01*
X063437Y011762D01*
X063437Y011609D01*
X063513Y011532D01*
X063820Y011532D01*
X063897Y011379D02*
X063897Y011072D01*
X063897Y011225D02*
X063437Y011225D01*
X063590Y011072D01*
X063513Y010918D02*
X063437Y010841D01*
X063437Y010688D01*
X063513Y010611D01*
X063820Y010611D01*
X063897Y010688D01*
X063897Y010841D01*
X063820Y010918D01*
X052351Y008186D02*
X052044Y008186D01*
X052274Y008417D01*
X052274Y007956D01*
X051890Y008033D02*
X051814Y007956D01*
X051660Y007956D01*
X051583Y008033D01*
X051583Y008340D01*
X051660Y008417D01*
X051814Y008417D01*
X051890Y008340D01*
X051430Y008417D02*
X051277Y008417D01*
X051353Y008417D02*
X051353Y007956D01*
X051277Y007956D02*
X051430Y007956D01*
X041533Y013412D02*
X041227Y013412D01*
X041380Y013412D02*
X041380Y013872D01*
X041227Y013719D01*
X040920Y013872D02*
X040920Y013412D01*
X041073Y013412D02*
X040766Y013412D01*
X040613Y013488D02*
X040536Y013412D01*
X040382Y013412D01*
X040306Y013488D01*
X040306Y013795D01*
X040382Y013872D01*
X040536Y013872D01*
X040613Y013795D01*
X040766Y013719D02*
X040920Y013872D01*
X064918Y033328D02*
X064918Y033558D01*
X064994Y033635D01*
X065148Y033635D01*
X065225Y033558D01*
X065225Y033328D01*
X065378Y033328D02*
X064918Y033328D01*
X065225Y033482D02*
X065378Y033635D01*
X065148Y033789D02*
X065148Y034096D01*
X064994Y034249D02*
X064918Y034326D01*
X064918Y034479D01*
X064994Y034556D01*
X065071Y034556D01*
X065378Y034249D01*
X065378Y034556D01*
X065378Y034019D02*
X064918Y034019D01*
X065148Y033789D01*
X066099Y034019D02*
X066329Y033789D01*
X066329Y034096D01*
X066252Y034249D02*
X066099Y034403D01*
X066559Y034403D01*
X066559Y034556D02*
X066559Y034249D01*
X066559Y034019D02*
X066099Y034019D01*
X066175Y033635D02*
X066329Y033635D01*
X066406Y033558D01*
X066406Y033328D01*
X066559Y033328D02*
X066099Y033328D01*
X066099Y033558D01*
X066175Y033635D01*
X066406Y033482D02*
X066559Y033635D01*
X065772Y035690D02*
X065311Y035690D01*
X065311Y035921D01*
X065388Y035997D01*
X065542Y035997D01*
X065618Y035921D01*
X065618Y035690D01*
X065618Y035844D02*
X065772Y035997D01*
X065542Y036151D02*
X065542Y036458D01*
X065695Y036611D02*
X065388Y036918D01*
X065695Y036918D01*
X065772Y036841D01*
X065772Y036688D01*
X065695Y036611D01*
X065388Y036611D01*
X065311Y036688D01*
X065311Y036841D01*
X065388Y036918D01*
X065311Y036381D02*
X065542Y036151D01*
X065772Y036381D02*
X065311Y036381D01*
X064591Y036381D02*
X064591Y036228D01*
X064514Y036151D01*
X064591Y035997D02*
X064437Y035844D01*
X064437Y035921D02*
X064437Y035690D01*
X064591Y035690D02*
X064130Y035690D01*
X064130Y035921D01*
X064207Y035997D01*
X064360Y035997D01*
X064437Y035921D01*
X064207Y036151D02*
X064130Y036228D01*
X064130Y036381D01*
X064207Y036458D01*
X064284Y036458D01*
X064360Y036381D01*
X064437Y036458D01*
X064514Y036458D01*
X064591Y036381D01*
X064360Y036381D02*
X064360Y036304D01*
X064284Y036611D02*
X064207Y036611D01*
X064130Y036688D01*
X064130Y036841D01*
X064207Y036918D01*
X064284Y036918D01*
X064360Y036841D01*
X064360Y036688D01*
X064284Y036611D01*
X064360Y036688D02*
X064437Y036611D01*
X064514Y036611D01*
X064591Y036688D01*
X064591Y036841D01*
X064514Y036918D01*
X064437Y036918D01*
X064360Y036841D01*
X063410Y036841D02*
X063410Y036688D01*
X063333Y036611D01*
X063179Y036611D01*
X063179Y036841D01*
X063256Y036918D01*
X063333Y036918D01*
X063410Y036841D01*
X063179Y036611D02*
X063026Y036765D01*
X062949Y036918D01*
X063026Y036458D02*
X063103Y036458D01*
X063179Y036381D01*
X063256Y036458D01*
X063333Y036458D01*
X063410Y036381D01*
X063410Y036228D01*
X063333Y036151D01*
X063410Y035997D02*
X063256Y035844D01*
X063256Y035921D02*
X063256Y035690D01*
X063410Y035690D02*
X062949Y035690D01*
X062949Y035921D01*
X063026Y035997D01*
X063179Y035997D01*
X063256Y035921D01*
X063026Y036151D02*
X062949Y036228D01*
X062949Y036381D01*
X063026Y036458D01*
X063179Y036381D02*
X063179Y036304D01*
X062228Y036281D02*
X061768Y036281D01*
X061768Y036511D01*
X061845Y036588D01*
X061998Y036588D01*
X062075Y036511D01*
X062075Y036281D01*
X062075Y036434D02*
X062228Y036588D01*
X062152Y036741D02*
X062228Y036818D01*
X062228Y036972D01*
X062152Y037048D01*
X062075Y037048D01*
X061998Y036972D01*
X061998Y036895D01*
X061998Y036972D02*
X061921Y037048D01*
X061845Y037048D01*
X061768Y036972D01*
X061768Y036818D01*
X061845Y036741D01*
X061768Y037202D02*
X061768Y037509D01*
X061845Y037509D01*
X062152Y037202D01*
X062228Y037202D01*
X066492Y037279D02*
X066569Y037202D01*
X066646Y037202D01*
X066723Y037279D01*
X066723Y037509D01*
X066876Y037509D02*
X066569Y037509D01*
X066492Y037432D01*
X066492Y037279D01*
X066569Y037048D02*
X066646Y037048D01*
X066723Y036972D01*
X066799Y037048D01*
X066876Y037048D01*
X066953Y036972D01*
X066953Y036818D01*
X066876Y036741D01*
X066953Y036588D02*
X066799Y036434D01*
X066799Y036511D02*
X066799Y036281D01*
X066953Y036281D02*
X066492Y036281D01*
X066492Y036511D01*
X066569Y036588D01*
X066723Y036588D01*
X066799Y036511D01*
X066569Y036741D02*
X066492Y036818D01*
X066492Y036972D01*
X066569Y037048D01*
X066723Y036972D02*
X066723Y036895D01*
X066876Y037202D02*
X066953Y037279D01*
X066953Y037432D01*
X066876Y037509D01*
D15*
X066640Y008259D02*
X066887Y008259D01*
X067009Y008259D02*
X067009Y007889D01*
X067009Y008074D02*
X067255Y008074D01*
X067377Y007951D02*
X067439Y007889D01*
X067562Y007889D01*
X067624Y007951D01*
X067624Y008198D01*
X067562Y008259D01*
X067439Y008259D01*
X067377Y008198D01*
X067377Y007951D01*
X067255Y007889D02*
X067255Y008259D01*
X067745Y008259D02*
X067745Y007951D01*
X067807Y007889D01*
X067930Y007889D01*
X067992Y007951D01*
X067992Y008259D01*
X068114Y008259D02*
X068360Y008259D01*
X068237Y008259D02*
X068237Y007889D01*
X068850Y007889D02*
X068850Y008259D01*
X069097Y008259D01*
X069218Y008198D02*
X069218Y007951D01*
X069280Y007889D01*
X069404Y007889D01*
X069465Y007951D01*
X069465Y008198D01*
X069404Y008259D01*
X069280Y008259D01*
X069218Y008198D01*
X068974Y008074D02*
X068850Y008074D01*
X069587Y008012D02*
X069772Y008012D01*
X069834Y008074D01*
X069834Y008198D01*
X069772Y008259D01*
X069587Y008259D01*
X069587Y007889D01*
X069710Y008012D02*
X069834Y007889D01*
X066764Y007889D02*
X066764Y008259D01*
X066518Y008259D02*
X066395Y008259D01*
X066456Y008259D02*
X066456Y007889D01*
X066395Y007889D02*
X066518Y007889D01*
X066273Y007889D02*
X066273Y008259D01*
X066026Y008259D02*
X066026Y007889D01*
X066150Y008012D01*
X066273Y007889D01*
X065537Y008259D02*
X065290Y008259D01*
X065168Y008259D02*
X064921Y007889D01*
X064800Y007889D02*
X064553Y007889D01*
X064553Y008259D01*
X064800Y008259D01*
X064921Y008259D02*
X065168Y007889D01*
X065413Y007889D02*
X065413Y008259D01*
X064677Y008074D02*
X064553Y008074D01*
X064432Y007889D02*
X064432Y008259D01*
X064185Y008259D02*
X064432Y007889D01*
X064185Y007889D02*
X064185Y008259D01*
X063694Y008136D02*
X063694Y008074D01*
X063632Y008074D01*
X063632Y008136D01*
X063694Y008136D01*
X063694Y007951D02*
X063694Y007889D01*
X063632Y007889D01*
X063632Y007951D01*
X063694Y007951D01*
X063143Y007951D02*
X063081Y007889D01*
X062896Y007889D01*
X062896Y008259D01*
X063081Y008259D01*
X063143Y008198D01*
X063143Y008136D01*
X063081Y008074D01*
X062896Y008074D01*
X062774Y007951D02*
X062774Y008259D01*
X062527Y008259D02*
X062527Y007951D01*
X062589Y007889D01*
X062713Y007889D01*
X062774Y007951D01*
X063081Y008074D02*
X063143Y008012D01*
X063143Y007951D01*
X062406Y007951D02*
X062344Y007889D01*
X062221Y007889D01*
X062159Y007951D01*
X062038Y007951D02*
X062038Y008198D01*
X061976Y008259D01*
X061852Y008259D01*
X061791Y008198D01*
X061791Y007951D01*
X061852Y007889D01*
X061976Y007889D01*
X062038Y007951D01*
X062221Y008074D02*
X062344Y008074D01*
X062406Y008012D01*
X062406Y007951D01*
X062221Y008074D02*
X062159Y008136D01*
X062159Y008198D01*
X062221Y008259D01*
X062344Y008259D01*
X062406Y008198D01*
X061669Y008198D02*
X061608Y008259D01*
X061484Y008259D01*
X061422Y008198D01*
X061422Y007951D01*
X061484Y007889D01*
X061608Y007889D01*
X061669Y007951D01*
X061669Y008074D01*
X061546Y008074D01*
X060933Y008259D02*
X060686Y008259D01*
X060564Y008259D02*
X060564Y007951D01*
X060503Y007889D01*
X060379Y007889D01*
X060318Y007951D01*
X060318Y008259D01*
X060196Y008198D02*
X060134Y008259D01*
X060011Y008259D01*
X059949Y008198D01*
X059949Y007951D01*
X060011Y007889D01*
X060134Y007889D01*
X060196Y007951D01*
X060196Y008198D01*
X059828Y008259D02*
X059828Y007889D01*
X059828Y008074D02*
X059581Y008074D01*
X059581Y007889D02*
X059581Y008259D01*
X059459Y008259D02*
X059213Y008259D01*
X059090Y008259D02*
X058967Y008259D01*
X059029Y008259D02*
X059029Y007889D01*
X059090Y007889D02*
X058967Y007889D01*
X058846Y007889D02*
X058846Y008259D01*
X058599Y008259D02*
X058599Y007889D01*
X058722Y008012D01*
X058846Y007889D01*
X059336Y007889D02*
X059336Y008259D01*
X058109Y008259D02*
X058109Y007889D01*
X057862Y008259D01*
X057862Y007889D01*
X057741Y007889D02*
X057617Y008012D01*
X057679Y008012D02*
X057494Y008012D01*
X057494Y007889D02*
X057494Y008259D01*
X057679Y008259D01*
X057741Y008198D01*
X057741Y008074D01*
X057679Y008012D01*
X057372Y007951D02*
X057311Y007889D01*
X057187Y007889D01*
X057125Y007951D01*
X057125Y008259D01*
X057004Y008259D02*
X056757Y008259D01*
X056636Y008259D02*
X056389Y008259D01*
X056389Y007889D01*
X056636Y007889D01*
X056512Y008074D02*
X056389Y008074D01*
X056267Y008074D02*
X056206Y008012D01*
X056021Y008012D01*
X056144Y008012D02*
X056267Y007889D01*
X056267Y008074D02*
X056267Y008198D01*
X056206Y008259D01*
X056021Y008259D01*
X056021Y007889D01*
X056881Y007889D02*
X056881Y008259D01*
X057372Y008259D02*
X057372Y007951D01*
X060809Y007889D02*
X060809Y008259D01*
D16*
X045960Y013544D02*
X045960Y013654D01*
X045923Y013691D01*
X045776Y013691D01*
X045740Y013654D01*
X045740Y013544D01*
X045960Y013544D01*
X045960Y013765D02*
X045960Y013912D01*
X045960Y013839D02*
X045740Y013839D01*
X045813Y013765D01*
X044621Y013802D02*
X044621Y013875D01*
X044585Y013912D01*
X044438Y013912D01*
X044401Y013875D01*
X044401Y013802D01*
X044438Y013765D01*
X044475Y013765D01*
X044511Y013802D01*
X044511Y013912D01*
X044621Y013802D02*
X044585Y013765D01*
X044621Y013691D02*
X044621Y013544D01*
X044621Y013618D02*
X044401Y013618D01*
X044475Y013544D01*
X044475Y013470D02*
X044511Y013434D01*
X044511Y013360D01*
X044475Y013323D01*
X044438Y013323D01*
X044401Y013360D01*
X044401Y013434D01*
X044438Y013470D01*
X044475Y013470D01*
X044511Y013434D02*
X044548Y013470D01*
X044585Y013470D01*
X044621Y013434D01*
X044621Y013360D01*
X044585Y013323D01*
X044548Y013323D01*
X044511Y013360D01*
X044511Y013249D02*
X044585Y013249D01*
X044621Y013213D01*
X044621Y013139D01*
X044585Y013102D01*
X044511Y013102D02*
X044475Y013176D01*
X044475Y013213D01*
X044511Y013249D01*
X044401Y013249D02*
X044401Y013102D01*
X044511Y013102D01*
X044621Y013028D02*
X044401Y013028D01*
X044401Y012881D02*
X044621Y013028D01*
X044621Y012881D02*
X044401Y012881D01*
X044401Y012734D02*
X044621Y012734D01*
X044621Y012807D02*
X044621Y012660D01*
X044475Y012660D02*
X044401Y012734D01*
X058713Y024222D02*
X058713Y029322D01*
X036469Y027371D02*
X036469Y032471D01*
X013635Y032668D02*
X013635Y027568D01*
D17*
X013269Y027393D02*
X013269Y026943D01*
X013119Y026943D02*
X013420Y026943D01*
X013119Y027243D02*
X013269Y027393D01*
X012959Y027318D02*
X012884Y027393D01*
X012734Y027393D01*
X012659Y027318D01*
X012659Y027018D01*
X012734Y026943D01*
X012884Y026943D01*
X012959Y027018D01*
X012502Y026943D02*
X012352Y026943D01*
X012427Y026943D02*
X012427Y027393D01*
X012352Y027393D02*
X012502Y027393D01*
X011801Y012407D02*
X011801Y012107D01*
X011801Y012257D02*
X011351Y012257D01*
X011501Y012107D01*
X011426Y011947D02*
X011576Y011947D01*
X011651Y011872D01*
X011651Y011647D01*
X011801Y011647D02*
X011351Y011647D01*
X011351Y011872D01*
X011426Y011947D01*
X011351Y011487D02*
X011351Y011337D01*
X011351Y011412D02*
X011726Y011412D01*
X011801Y011337D01*
X011801Y011261D01*
X011726Y011186D01*
X035187Y026746D02*
X035337Y026746D01*
X035262Y026746D02*
X035262Y027197D01*
X035187Y027197D02*
X035337Y027197D01*
X035494Y027122D02*
X035494Y026821D01*
X035569Y026746D01*
X035719Y026746D01*
X035794Y026821D01*
X035954Y026746D02*
X036254Y027047D01*
X036254Y027122D01*
X036179Y027197D01*
X036029Y027197D01*
X035954Y027122D01*
X035794Y027122D02*
X035719Y027197D01*
X035569Y027197D01*
X035494Y027122D01*
X035954Y026746D02*
X036254Y026746D01*
X044785Y013976D02*
X045572Y013976D01*
X045572Y012402D01*
X044785Y012402D01*
X044785Y013976D01*
X057431Y023597D02*
X057581Y023597D01*
X057506Y023597D02*
X057506Y024047D01*
X057431Y024047D02*
X057581Y024047D01*
X057738Y023972D02*
X057738Y023672D01*
X057813Y023597D01*
X057963Y023597D01*
X058038Y023672D01*
X058198Y023672D02*
X058273Y023597D01*
X058423Y023597D01*
X058498Y023672D01*
X058498Y023747D01*
X058423Y023822D01*
X058348Y023822D01*
X058423Y023822D02*
X058498Y023897D01*
X058498Y023972D01*
X058423Y024047D01*
X058273Y024047D01*
X058198Y023972D01*
X058038Y023972D02*
X057963Y024047D01*
X057813Y024047D01*
X057738Y023972D01*
X067029Y024606D02*
X068998Y024606D01*
X068998Y028543D01*
X067029Y028543D01*
X067029Y024606D01*
X052856Y051575D02*
X048919Y051575D01*
X048919Y053543D01*
X052856Y053543D01*
X052856Y051575D01*
X039659Y052240D02*
X015659Y052240D01*
X015659Y055240D01*
X039659Y055240D01*
X039659Y052240D01*
D18*
X062778Y049466D02*
X062778Y049046D01*
X063093Y049046D01*
X062988Y049256D01*
X062988Y049361D01*
X063093Y049466D01*
X063304Y049466D01*
X063409Y049361D01*
X063409Y049151D01*
X063304Y049046D01*
X063304Y048822D02*
X063409Y048717D01*
X063409Y048506D01*
X063304Y048401D01*
X062883Y048401D01*
X062778Y048506D01*
X062778Y048717D01*
X062883Y048822D01*
X069077Y048717D02*
X069077Y048506D01*
X069182Y048401D01*
X069603Y048401D01*
X069708Y048506D01*
X069708Y048717D01*
X069603Y048822D01*
X069393Y049046D02*
X069393Y049466D01*
X069708Y049361D02*
X069077Y049361D01*
X069393Y049046D01*
X069182Y048822D02*
X069077Y048717D01*
X005535Y048506D02*
X005535Y048717D01*
X005430Y048822D01*
X005430Y049046D02*
X005535Y049151D01*
X005535Y049361D01*
X005430Y049466D01*
X005324Y049466D01*
X005219Y049361D01*
X005219Y049046D01*
X005430Y049046D01*
X005219Y049046D02*
X005009Y049256D01*
X004904Y049466D01*
X005009Y048822D02*
X004904Y048717D01*
X004904Y048506D01*
X005009Y048401D01*
X005430Y048401D01*
X005535Y048506D01*
D19*
X003250Y051940D03*
X061124Y051940D03*
X067423Y051940D03*
D20*
X045179Y012677D03*
D21*
X065651Y020417D03*
M02*
