%
M48
M72
T01C0.0200
T02C0.0236
T03C0.0394
T04C0.0400
T05C0.0433
T06C0.1260
%
T01
X11399Y12638
X10691Y14173
X10691Y17126
X11242Y17480
X9509Y19803
X10691Y21496
X11242Y21024
X11714Y22008
X10691Y23189
X13958Y21535
X10218Y25945
X9706Y25945
X12265Y27480
X13289Y27126
X13801Y27126
X13565Y28346
X13565Y29370
X12856Y30354
X12265Y30709
X13565Y31378
X15021Y30433
X15612Y28937
X16360Y28228
X19116Y27126
X15021Y32362
X17383Y33071
X9588Y30354
X9588Y29843
X8486Y31339
X8565Y32283
X7541Y32283
X5927Y29370
X4155Y35669
X2777Y36339
X27698Y32165
X28840Y32047
X30021Y32559
X32383Y32205
X32423Y30157
X32069Y28819
X32187Y27677
X32069Y26535
X33683Y24449
X34273Y25039
X32226Y24016
X30257Y24016
X29706Y23661
X28840Y23307
X27935Y21890
X27069Y21535
X36360Y25984
X36360Y28150
X34667Y29134
X36399Y30157
X36163Y31732
X38368Y32677
X42226Y32677
X52108Y32480
X54273Y29055
X52974Y27992
X52029Y27638
X54116Y25551
X56124Y25630
X56754Y25000
X58092Y25984
X58643Y25354
X60612Y25906
X61635Y26181
X60100Y28031
X62100Y29102
X56202Y27047
X57580Y22874
X61517Y15394
X48210Y13465
X46635Y14764
X18880Y14528
T02
X19391Y48622
X16242Y48622
X7580Y48622
X28053Y48622
X31202Y48622
X39864Y48622
X43013Y48622
X51675Y48622
X54824Y48622
X63486Y48622
X69982Y42126
X69982Y40551
X69982Y39764
X69194Y39764
X69194Y40551
X67620Y19291
T03
X23378Y19000
X22378Y19000
X22378Y18000
X23378Y18000
X23378Y17000
X22378Y17000
X22378Y16000
X23378Y16000
X23378Y15000
X22378Y15000
X22378Y14000
X23378Y14000
X23378Y13000
X23378Y12000
X22378Y12000
X22378Y13000
X22378Y11000
X23378Y11000
X23378Y10000
X22378Y10000
X22378Y9000
X23378Y9000
X23378Y8000
X22378Y8000
X22378Y20000
X23378Y20000
X23378Y21000
X23378Y22000
X22378Y22000
X22378Y21000
X22378Y23000
X23378Y23000
X23378Y24000
X22378Y24000
X22378Y25000
X23378Y25000
X23378Y26000
X22378Y26000
X22378Y27000
X23378Y27000
X23378Y28000
X22378Y28000
X22378Y29000
X23378Y29000
X23378Y30000
X22378Y30000
X4378Y30000
X4378Y29000
X4378Y28000
X4378Y27000
X4378Y26000
X4378Y25000
X4378Y24000
X4378Y23000
X4378Y22000
X4378Y21000
X4378Y20000
X4378Y19000
X4378Y18000
X4378Y17000
X4378Y16000
X4378Y15000
X4378Y14000
X4378Y13000
X4378Y12000
X4378Y11000
X4378Y10000
X4378Y9000
X4378Y8000
X3378Y8000
X3378Y9000
X3378Y10000
X3378Y11000
X3378Y12000
X3378Y13000
X3378Y14000
X3378Y15000
X3378Y16000
X3378Y17000
X3378Y18000
X3378Y19000
X3378Y20000
X3378Y21000
X3378Y22000
X3378Y23000
X3378Y24000
X3378Y25000
X3378Y26000
X3378Y27000
X3378Y28000
X3378Y29000
X3378Y30000
T04
X12576Y20661
X12576Y19661
X12576Y18661
X12576Y17661
X12576Y16661
X12576Y15661
X12576Y14661
X12576Y13661
X12576Y12661
X12576Y11661
X13576Y11661
X13576Y12661
X13576Y13661
X13576Y14661
X13576Y15661
X13576Y16661
X13576Y17661
X13576Y18661
X13576Y19661
X13576Y20661
X3250Y51165
X3250Y53165
X61124Y53165
X61124Y51165
X67423Y51165
X67423Y53165
T05
X51872Y52559
X49903Y52559
X38659Y53740
X36659Y53740
X34659Y53740
X32659Y53740
X30659Y53740
X28659Y53740
X26659Y53740
X24659Y53740
X22659Y53740
X20659Y53740
X18659Y53740
X16659Y53740
X68013Y27559
X68013Y25591
T06
X1084Y7087
X33171Y12205
X46360Y19291
X47147Y31102
X58761Y37598
X69982Y55512
X34746Y37598
X1084Y37598
X1084Y48819
X1084Y55512
X69982Y7087
M30
