G75*
G70*
%OFA0B0*%
%FSLAX24Y24*%
%IPPOS*%
%LPD*%
%AMOC8*
5,1,8,0,0,1.08239X$1,22.5*
%
%ADD10R,0.0594X0.0594*%
%ADD11C,0.0594*%
%ADD12C,0.1000*%
%ADD13OC8,0.1000*%
%ADD14C,0.0787*%
%ADD15OC8,0.0600*%
%ADD16R,0.0396X0.0396*%
%ADD17C,0.0560*%
%ADD18C,0.0100*%
%ADD19C,0.0360*%
%ADD20C,0.0197*%
%ADD21C,0.0160*%
%ADD22C,0.0660*%
D10*
X004378Y008000D03*
X023378Y008000D03*
D11*
X023378Y009000D03*
X022378Y009000D03*
X022378Y008000D03*
X022378Y010000D03*
X023378Y010000D03*
X023378Y011000D03*
X022378Y011000D03*
X022378Y012000D03*
X023378Y012000D03*
X023378Y013000D03*
X022378Y013000D03*
X022378Y014000D03*
X023378Y014000D03*
X023378Y015000D03*
X022378Y015000D03*
X022378Y016000D03*
X023378Y016000D03*
X023378Y017000D03*
X023378Y018000D03*
X022378Y018000D03*
X022378Y017000D03*
X022378Y019000D03*
X023378Y019000D03*
X023378Y020000D03*
X022378Y020000D03*
X022378Y021000D03*
X023378Y021000D03*
X023378Y022000D03*
X022378Y022000D03*
X022378Y023000D03*
X023378Y023000D03*
X023378Y024000D03*
X022378Y024000D03*
X022378Y025000D03*
X023378Y025000D03*
X023378Y026000D03*
X022378Y026000D03*
X022378Y027000D03*
X023378Y027000D03*
X023378Y028000D03*
X022378Y028000D03*
X022378Y029000D03*
X023378Y029000D03*
X023378Y030000D03*
X022378Y030000D03*
X004378Y030000D03*
X004378Y029000D03*
X004378Y028000D03*
X004378Y027000D03*
X004378Y026000D03*
X004378Y025000D03*
X004378Y024000D03*
X004378Y023000D03*
X004378Y022000D03*
X004378Y021000D03*
X004378Y020000D03*
X004378Y019000D03*
X004378Y018000D03*
X004378Y017000D03*
X004378Y016000D03*
X004378Y015000D03*
X004378Y014000D03*
X004378Y013000D03*
X004378Y012000D03*
X004378Y011000D03*
X004378Y010000D03*
X004378Y009000D03*
X003378Y009000D03*
X003378Y008000D03*
X003378Y010000D03*
X003378Y011000D03*
X003378Y012000D03*
X003378Y013000D03*
X003378Y014000D03*
X003378Y015000D03*
X003378Y016000D03*
X003378Y017000D03*
X003378Y018000D03*
X003378Y019000D03*
X003378Y020000D03*
X003378Y021000D03*
X003378Y022000D03*
X003378Y023000D03*
X003378Y024000D03*
X003378Y025000D03*
X003378Y026000D03*
X003378Y027000D03*
X003378Y028000D03*
X003378Y029000D03*
X003378Y030000D03*
D12*
X003250Y053165D03*
X061124Y053165D03*
X067423Y053165D03*
D13*
X067423Y051165D03*
X061124Y051165D03*
X003250Y051165D03*
D14*
X016659Y053346D02*
X016659Y054134D01*
X018659Y054134D02*
X018659Y053346D01*
X020659Y053346D02*
X020659Y054134D01*
X022659Y054134D02*
X022659Y053346D01*
X024659Y053346D02*
X024659Y054134D01*
X026659Y054134D02*
X026659Y053346D01*
X028659Y053346D02*
X028659Y054134D01*
X030659Y054134D02*
X030659Y053346D01*
X032659Y053346D02*
X032659Y054134D01*
X034659Y054134D02*
X034659Y053346D01*
X036659Y053346D02*
X036659Y054134D01*
X038659Y054134D02*
X038659Y053346D01*
X049903Y052953D02*
X049903Y052165D01*
X051872Y052165D02*
X051872Y052953D01*
X067620Y027559D02*
X068407Y027559D01*
X068407Y025591D02*
X067620Y025591D01*
D15*
X013576Y020661D03*
X013576Y019661D03*
X013576Y018661D03*
X013576Y017661D03*
X013576Y016661D03*
X013576Y015661D03*
X013576Y014661D03*
X013576Y013661D03*
X013576Y012661D03*
X013576Y011661D03*
X012576Y011661D03*
X012576Y012661D03*
X012576Y013661D03*
X012576Y014661D03*
X012576Y015661D03*
X012576Y016661D03*
X012576Y017661D03*
X012576Y018661D03*
X012576Y019661D03*
X012576Y020661D03*
D16*
X016242Y048622D03*
X019391Y048622D03*
X028053Y048622D03*
X031202Y048622D03*
X039864Y048622D03*
X043013Y048622D03*
X051675Y048622D03*
X054824Y048622D03*
X063486Y048622D03*
X069982Y042126D03*
X069982Y040551D03*
X069982Y039764D03*
X069194Y039764D03*
X069194Y040551D03*
X067620Y019291D03*
X007580Y048622D03*
D17*
X007383Y048622D01*
X016242Y048622D01*
X019391Y048622D01*
X028053Y048622D01*
X031202Y048622D01*
X033171Y048622D01*
X031202Y048622D01*
X033171Y048622D02*
X039864Y048622D01*
X040651Y048622D01*
X039864Y048622D01*
X040651Y048622D02*
X043013Y048622D01*
X043604Y048622D01*
X043013Y048622D01*
X043604Y048622D02*
X051675Y048622D01*
X052069Y048622D01*
X051675Y048622D01*
X052069Y048622D02*
X054431Y048622D01*
X054824Y048622D01*
X054431Y048622D01*
X054824Y048622D02*
X061124Y048622D01*
X061124Y051165D01*
X061320Y051165D01*
X061124Y050969D01*
X061124Y046654D01*
X060730Y046260D01*
X060730Y035827D01*
X064667Y031890D01*
X064667Y029102D01*
X064667Y026378D01*
X067620Y023425D01*
X067620Y019291D01*
X063486Y048622D02*
X061124Y048622D01*
X061320Y051165D02*
X067423Y051165D01*
X007383Y048622D02*
X005793Y048622D01*
X003250Y051165D01*
D18*
X003210Y007520D02*
X007895Y007520D01*
X008092Y007717D01*
X021990Y007717D01*
X022187Y007520D01*
X053643Y007520D01*
X061517Y015394D01*
X057580Y022835D02*
X057580Y022874D01*
X059647Y024941D01*
X059628Y024961D01*
X052108Y032480D01*
X054273Y029055D02*
X038013Y029055D01*
X033722Y033346D01*
X017620Y033346D01*
X014943Y036024D01*
X003998Y036024D01*
X002895Y034921D01*
X002895Y025472D01*
X003368Y025000D01*
X003378Y025000D01*
X003378Y024000D02*
X003407Y023976D01*
X003840Y023543D01*
X011950Y023543D01*
X013958Y021535D01*
X014076Y021142D02*
X012226Y021142D01*
X010887Y019803D01*
X009509Y019803D01*
X009352Y019449D02*
X011714Y019449D01*
X012383Y020118D01*
X013131Y020118D01*
X013565Y019685D01*
X013576Y019661D01*
X013722Y019173D02*
X013053Y019173D01*
X012580Y019646D01*
X012576Y019661D01*
X011990Y019213D02*
X012541Y018661D01*
X012576Y018661D01*
X013092Y018189D02*
X013565Y018661D01*
X013576Y018661D01*
X013722Y019173D02*
X019864Y013031D01*
X022344Y013031D01*
X022378Y013000D01*
X022383Y015000D02*
X022378Y015000D01*
X022383Y015000D02*
X022856Y015472D01*
X022856Y018150D01*
X023171Y018465D01*
X023486Y018465D01*
X032541Y027520D01*
X032541Y027835D01*
X032423Y027953D01*
X032423Y030157D01*
X032069Y028819D02*
X028840Y032047D01*
X029194Y032205D02*
X028880Y032520D01*
X027541Y032520D01*
X023840Y028819D01*
X023840Y021811D01*
X023486Y021457D01*
X014391Y021457D01*
X014076Y021142D01*
X013368Y020197D02*
X012935Y020630D01*
X012580Y020630D01*
X012576Y020661D01*
X013368Y020197D02*
X013683Y020197D01*
X014352Y019528D01*
X022502Y019528D01*
X023013Y019016D01*
X023368Y019016D01*
X023378Y019000D01*
X023378Y022000D02*
X023368Y022008D01*
X022895Y022480D01*
X022226Y022480D01*
X021911Y022795D01*
X021911Y023189D01*
X015809Y029291D01*
X015651Y029291D01*
X014588Y030354D01*
X012856Y030354D01*
X012265Y030433D02*
X012265Y030709D01*
X012265Y030433D02*
X012974Y029724D01*
X013722Y029724D01*
X013919Y029528D01*
X013919Y029213D01*
X013289Y028583D01*
X012344Y028583D01*
X009706Y025945D01*
X010218Y025945D02*
X012620Y028346D01*
X013565Y028346D01*
X013565Y029370D02*
X005927Y029370D01*
X005887Y029843D02*
X004588Y028543D01*
X003840Y028543D01*
X003407Y028976D01*
X003378Y029000D01*
X004378Y029000D02*
X004391Y029016D01*
X006714Y031339D01*
X008486Y031339D01*
X008565Y032283D02*
X009470Y031378D01*
X013565Y031378D01*
X015021Y030433D02*
X015297Y030433D01*
X022265Y023465D01*
X022935Y023465D01*
X023368Y023031D01*
X023378Y023000D01*
X027069Y021535D02*
X052541Y021535D01*
X056360Y025354D01*
X058643Y025354D01*
X058092Y025984D02*
X055454Y025984D01*
X052777Y023307D01*
X028840Y023307D01*
X029706Y023661D02*
X032383Y023661D01*
X036714Y027992D01*
X052974Y027992D01*
X052029Y027638D02*
X054116Y025551D01*
X055415Y025630D02*
X051675Y021890D01*
X027935Y021890D01*
X030257Y024016D02*
X036399Y030157D01*
X036163Y031732D02*
X035966Y031732D01*
X030966Y036732D01*
X003171Y036732D01*
X002777Y036339D01*
X004155Y035669D02*
X004667Y035669D01*
X009588Y030748D01*
X009588Y030354D01*
X009588Y029843D02*
X005887Y029843D01*
X004391Y027992D02*
X004378Y028000D01*
X004391Y027992D02*
X006793Y025591D01*
X010376Y025591D01*
X011911Y027126D01*
X013289Y027126D01*
X013801Y027126D02*
X012029Y025354D01*
X006006Y025354D01*
X004391Y026969D01*
X004378Y027000D01*
X004509Y026535D02*
X003840Y026535D01*
X003407Y026969D01*
X003378Y027000D01*
X004509Y026535D02*
X006439Y024606D01*
X012856Y024606D01*
X016360Y028110D01*
X016360Y028228D01*
X015612Y028937D02*
X014155Y027480D01*
X012265Y027480D01*
X010691Y023189D02*
X005218Y023189D01*
X004509Y022480D01*
X003210Y022480D01*
X002895Y022165D01*
X002895Y021496D01*
X003368Y021024D01*
X003378Y021000D01*
X003880Y021496D02*
X003407Y021969D01*
X003378Y022000D01*
X003880Y021496D02*
X010691Y021496D01*
X011242Y021024D02*
X004391Y021024D01*
X004378Y021000D01*
X004194Y020472D02*
X008328Y020472D01*
X009352Y019449D01*
X009273Y019213D02*
X011990Y019213D01*
X011242Y018976D02*
X012541Y017677D01*
X012576Y017661D01*
X012383Y017205D02*
X012777Y017205D01*
X013092Y017520D01*
X013092Y018189D01*
X012383Y017205D02*
X011124Y018465D01*
X004273Y018465D01*
X003761Y018976D01*
X003407Y018976D01*
X003378Y019000D01*
X004378Y019000D02*
X004391Y018976D01*
X011242Y018976D01*
X011242Y017992D02*
X012541Y016693D01*
X012576Y016661D01*
X012108Y016457D02*
X012383Y016181D01*
X013092Y016181D01*
X013565Y016654D01*
X013576Y016661D01*
X013576Y015661D02*
X013565Y015630D01*
X013131Y015197D01*
X012462Y015197D01*
X012265Y015000D01*
X004391Y015000D01*
X004378Y015000D01*
X004273Y015551D02*
X012462Y015551D01*
X012541Y015630D01*
X012576Y015661D01*
X012108Y016457D02*
X004273Y016457D01*
X003761Y016969D01*
X003407Y016969D01*
X003378Y017000D01*
X003880Y017520D02*
X003407Y017992D01*
X003378Y018000D01*
X003880Y017520D02*
X004509Y017520D01*
X004903Y017126D01*
X010691Y017126D01*
X010848Y016772D02*
X011242Y017165D01*
X011242Y017480D01*
X011242Y017992D02*
X004391Y017992D01*
X004378Y018000D01*
X004378Y017000D02*
X004391Y016969D01*
X004588Y016772D01*
X010848Y016772D01*
X010691Y014173D02*
X004549Y014173D01*
X004391Y014016D01*
X004378Y014000D01*
X004273Y013543D02*
X003761Y013031D01*
X003407Y013031D01*
X003378Y013000D01*
X002895Y013189D02*
X002895Y007835D01*
X003210Y007520D01*
X004378Y008000D02*
X004391Y007992D01*
X008053Y011654D01*
X012541Y011654D01*
X012576Y011661D01*
X012620Y011654D01*
X016242Y008031D01*
X022344Y008031D01*
X022378Y008000D01*
X018880Y014528D02*
X045848Y014528D01*
X056320Y025000D01*
X056754Y025000D01*
X056124Y025630D02*
X055415Y025630D01*
X056202Y027047D02*
X053604Y024449D01*
X033683Y024449D01*
X034273Y025039D02*
X035218Y025984D01*
X036360Y025984D01*
X036360Y028150D02*
X032226Y024016D01*
X032069Y026535D02*
X034667Y029134D01*
X032187Y027677D02*
X027698Y032165D01*
X028958Y032756D02*
X024470Y032756D01*
X019116Y027402D01*
X019116Y027126D01*
X015021Y032362D02*
X015730Y033071D01*
X017383Y033071D01*
X007541Y032283D02*
X005691Y032283D01*
X003407Y030000D01*
X003378Y030000D01*
X004391Y022008D02*
X004378Y022000D01*
X004391Y022008D02*
X011714Y022008D01*
X009273Y019213D02*
X008486Y020000D01*
X004391Y020000D01*
X004378Y020000D01*
X004194Y020472D02*
X003722Y020000D01*
X003407Y020000D01*
X003378Y020000D01*
X004273Y015551D02*
X003722Y015000D01*
X003407Y015000D01*
X003378Y015000D01*
X003378Y014000D02*
X003368Y013976D01*
X003368Y013661D01*
X002895Y013189D01*
X004273Y013543D02*
X011439Y013543D01*
X012541Y014646D01*
X012576Y014661D01*
X012423Y014173D02*
X013092Y014173D01*
X013565Y014646D01*
X013576Y014661D01*
X013565Y013661D02*
X013576Y013661D01*
X013565Y013661D02*
X013092Y013189D01*
X012462Y013189D01*
X011557Y012283D01*
X008053Y012283D01*
X005769Y010000D01*
X004391Y010000D01*
X004378Y010000D01*
X003919Y009882D02*
X003919Y010197D01*
X004273Y010551D01*
X005966Y010551D01*
X008053Y012638D01*
X011399Y012638D01*
X011557Y013307D02*
X012423Y014173D01*
X012541Y013661D02*
X012576Y013661D01*
X012541Y013661D02*
X011950Y013071D01*
X008171Y013071D01*
X006635Y011535D01*
X004273Y011535D01*
X003919Y011181D01*
X003919Y010906D01*
X003407Y010394D01*
X003407Y010000D01*
X003378Y010000D01*
X003919Y009882D02*
X003407Y009370D01*
X003407Y009016D01*
X003378Y009000D01*
X004378Y009000D02*
X004391Y009016D01*
X005100Y009016D01*
X008131Y012047D01*
X012305Y012047D01*
X012462Y012205D01*
X013131Y012205D01*
X013565Y012638D01*
X013576Y012661D01*
X011557Y013307D02*
X008092Y013307D01*
X007817Y013031D01*
X004391Y013031D01*
X004378Y013000D01*
X029194Y032205D02*
X032383Y032205D01*
X030021Y032559D02*
X029155Y032559D01*
X028958Y032756D01*
X038368Y032677D02*
X042226Y032677D01*
X057580Y022835D02*
X048210Y013465D01*
X059647Y024941D02*
X060612Y025906D01*
X061635Y026181D02*
X061635Y026496D01*
X060100Y028031D01*
X062100Y029102D02*
X064600Y029102D01*
X064667Y029102D01*
D19*
X062100Y029102D03*
X060100Y028031D03*
X061635Y026181D03*
X060612Y025906D03*
X058643Y025354D03*
X058092Y025984D03*
X056754Y025000D03*
X056124Y025630D03*
X056202Y027047D03*
X054116Y025551D03*
X052029Y027638D03*
X052974Y027992D03*
X054273Y029055D03*
X052108Y032480D03*
X042226Y032677D03*
X038368Y032677D03*
X036163Y031732D03*
X036399Y030157D03*
X034667Y029134D03*
X036360Y028150D03*
X036360Y025984D03*
X034273Y025039D03*
X033683Y024449D03*
X032226Y024016D03*
X030257Y024016D03*
X029706Y023661D03*
X028840Y023307D03*
X027935Y021890D03*
X027069Y021535D03*
X032069Y026535D03*
X032187Y027677D03*
X032069Y028819D03*
X032423Y030157D03*
X032383Y032205D03*
X030021Y032559D03*
X028840Y032047D03*
X027698Y032165D03*
X019116Y027126D03*
X016360Y028228D03*
X015612Y028937D03*
X015021Y030433D03*
X013565Y031378D03*
X012856Y030354D03*
X012265Y030709D03*
X013565Y029370D03*
X013565Y028346D03*
X012265Y027480D03*
X013289Y027126D03*
X013801Y027126D03*
X010218Y025945D03*
X009706Y025945D03*
X010691Y023189D03*
X011714Y022008D03*
X011242Y021024D03*
X010691Y021496D03*
X009509Y019803D03*
X011242Y017480D03*
X010691Y017126D03*
X010691Y014173D03*
X011399Y012638D03*
X018880Y014528D03*
X013958Y021535D03*
X005927Y029370D03*
X008486Y031339D03*
X008565Y032283D03*
X007541Y032283D03*
X009588Y030354D03*
X009588Y029843D03*
X015021Y032362D03*
X017383Y033071D03*
X004155Y035669D03*
X002777Y036339D03*
X046635Y014764D03*
X048210Y013465D03*
X057580Y022874D03*
X061517Y015394D03*
D20*
X046635Y014764D02*
X046478Y014764D01*
X040730Y009016D01*
X023407Y009016D01*
X023378Y009000D01*
X022378Y009000D02*
X022344Y009016D01*
X019706Y011654D01*
X013604Y011654D01*
X013576Y011661D01*
D21*
X068604Y038780D02*
X068604Y042717D01*
X070572Y042717D01*
X070572Y038780D01*
X068604Y038780D01*
X068604Y038912D02*
X070572Y038912D01*
X070572Y039070D02*
X068604Y039070D01*
X068604Y039229D02*
X070572Y039229D01*
X070572Y039387D02*
X068604Y039387D01*
X068604Y039546D02*
X070572Y039546D01*
X070572Y039704D02*
X068604Y039704D01*
X068604Y039863D02*
X070572Y039863D01*
X070572Y040021D02*
X068604Y040021D01*
X068604Y040180D02*
X070572Y040180D01*
X070572Y040338D02*
X068604Y040338D01*
X068604Y040497D02*
X070572Y040497D01*
X070572Y040655D02*
X068604Y040655D01*
X068604Y040814D02*
X070572Y040814D01*
X070572Y040972D02*
X068604Y040972D01*
X068604Y041131D02*
X070572Y041131D01*
X070572Y041289D02*
X068604Y041289D01*
X068604Y041448D02*
X070572Y041448D01*
X070572Y041606D02*
X068604Y041606D01*
X068604Y041765D02*
X070572Y041765D01*
X070572Y041923D02*
X068604Y041923D01*
X068604Y042082D02*
X070572Y042082D01*
X070572Y042240D02*
X068604Y042240D01*
X068604Y042399D02*
X070572Y042399D01*
X070572Y042557D02*
X068604Y042557D01*
X068604Y042716D02*
X070572Y042716D01*
D22*
X070179Y042323D02*
X069982Y042126D01*
X070179Y042323D02*
X070179Y051969D01*
X068982Y053165D01*
X067423Y053165D01*
X069982Y039764D02*
X069982Y029528D01*
X068013Y027559D01*
M02*
