G75*
G70*
%OFA0B0*%
%FSLAX24Y24*%
%IPPOS*%
%LPD*%
%AMOC8*
5,1,8,0,0,1.08239X$1,22.5*
%
%ADD10C,0.1340*%
%ADD11R,0.0674X0.0674*%
%ADD12C,0.0674*%
%ADD13C,0.1080*%
%ADD14OC8,0.1080*%
%ADD15C,0.0867*%
%ADD16OC8,0.0680*%
%ADD17R,0.0476X0.0476*%
%ADD18C,0.0440*%
D10*
X001084Y007087D03*
X033171Y012205D03*
X046360Y019291D03*
X047147Y031102D03*
X058761Y037598D03*
X069982Y055512D03*
X034746Y037598D03*
X001084Y037598D03*
X001084Y048819D03*
X001084Y055512D03*
X069982Y007087D03*
D11*
X023378Y008000D03*
X004378Y008000D03*
D12*
X004378Y009000D03*
X004378Y010000D03*
X004378Y011000D03*
X004378Y012000D03*
X004378Y013000D03*
X004378Y014000D03*
X004378Y015000D03*
X004378Y016000D03*
X004378Y017000D03*
X004378Y018000D03*
X004378Y019000D03*
X004378Y020000D03*
X004378Y021000D03*
X004378Y022000D03*
X004378Y023000D03*
X004378Y024000D03*
X004378Y025000D03*
X004378Y026000D03*
X004378Y027000D03*
X004378Y028000D03*
X004378Y029000D03*
X004378Y030000D03*
X003378Y030000D03*
X003378Y029000D03*
X003378Y028000D03*
X003378Y027000D03*
X003378Y026000D03*
X003378Y025000D03*
X003378Y024000D03*
X003378Y023000D03*
X003378Y022000D03*
X003378Y021000D03*
X003378Y020000D03*
X003378Y019000D03*
X003378Y018000D03*
X003378Y017000D03*
X003378Y016000D03*
X003378Y015000D03*
X003378Y014000D03*
X003378Y013000D03*
X003378Y012000D03*
X003378Y011000D03*
X003378Y010000D03*
X003378Y009000D03*
X003378Y008000D03*
X022378Y008000D03*
X022378Y009000D03*
X023378Y009000D03*
X023378Y010000D03*
X022378Y010000D03*
X022378Y011000D03*
X023378Y011000D03*
X023378Y012000D03*
X023378Y013000D03*
X022378Y013000D03*
X022378Y012000D03*
X022378Y014000D03*
X023378Y014000D03*
X023378Y015000D03*
X022378Y015000D03*
X022378Y016000D03*
X023378Y016000D03*
X023378Y017000D03*
X023378Y018000D03*
X022378Y018000D03*
X022378Y017000D03*
X022378Y019000D03*
X023378Y019000D03*
X023378Y020000D03*
X022378Y020000D03*
X022378Y021000D03*
X023378Y021000D03*
X023378Y022000D03*
X022378Y022000D03*
X022378Y023000D03*
X023378Y023000D03*
X023378Y024000D03*
X022378Y024000D03*
X022378Y025000D03*
X023378Y025000D03*
X023378Y026000D03*
X022378Y026000D03*
X022378Y027000D03*
X023378Y027000D03*
X023378Y028000D03*
X022378Y028000D03*
X022378Y029000D03*
X023378Y029000D03*
X023378Y030000D03*
X022378Y030000D03*
D13*
X003250Y053165D03*
X061124Y053165D03*
X067423Y053165D03*
D14*
X067423Y051165D03*
X061124Y051165D03*
X003250Y051165D03*
D15*
X016659Y053346D02*
X016659Y054134D01*
X018659Y054134D02*
X018659Y053346D01*
X020659Y053346D02*
X020659Y054134D01*
X022659Y054134D02*
X022659Y053346D01*
X024659Y053346D02*
X024659Y054134D01*
X026659Y054134D02*
X026659Y053346D01*
X028659Y053346D02*
X028659Y054134D01*
X030659Y054134D02*
X030659Y053346D01*
X032659Y053346D02*
X032659Y054134D01*
X034659Y054134D02*
X034659Y053346D01*
X036659Y053346D02*
X036659Y054134D01*
X038659Y054134D02*
X038659Y053346D01*
X049903Y052953D02*
X049903Y052165D01*
X051872Y052165D02*
X051872Y052953D01*
X067620Y027559D02*
X068407Y027559D01*
X068407Y025591D02*
X067620Y025591D01*
D16*
X013576Y020661D03*
X013576Y019661D03*
X013576Y018661D03*
X013576Y017661D03*
X013576Y016661D03*
X013576Y015661D03*
X013576Y014661D03*
X013576Y013661D03*
X013576Y012661D03*
X013576Y011661D03*
X012576Y011661D03*
X012576Y012661D03*
X012576Y013661D03*
X012576Y014661D03*
X012576Y015661D03*
X012576Y016661D03*
X012576Y017661D03*
X012576Y018661D03*
X012576Y019661D03*
X012576Y020661D03*
D17*
X016242Y048622D03*
X019391Y048622D03*
X028053Y048622D03*
X031202Y048622D03*
X039864Y048622D03*
X043013Y048622D03*
X051675Y048622D03*
X054824Y048622D03*
X063486Y048622D03*
X069982Y042126D03*
X069982Y040551D03*
X069982Y039764D03*
X069194Y039764D03*
X069194Y040551D03*
X067620Y019291D03*
X007580Y048622D03*
D18*
X002777Y036339D03*
X004155Y035669D03*
X007541Y032283D03*
X008565Y032283D03*
X008486Y031339D03*
X009588Y030354D03*
X009588Y029843D03*
X012265Y030709D03*
X012856Y030354D03*
X013565Y029370D03*
X013565Y028346D03*
X012265Y027480D03*
X013289Y027126D03*
X013801Y027126D03*
X015612Y028937D03*
X016360Y028228D03*
X019116Y027126D03*
X015021Y030433D03*
X013565Y031378D03*
X015021Y032362D03*
X017383Y033071D03*
X010218Y025945D03*
X009706Y025945D03*
X010691Y023189D03*
X011714Y022008D03*
X011242Y021024D03*
X010691Y021496D03*
X009509Y019803D03*
X011242Y017480D03*
X010691Y017126D03*
X010691Y014173D03*
X011399Y012638D03*
X018880Y014528D03*
X013958Y021535D03*
X005927Y029370D03*
X027698Y032165D03*
X028840Y032047D03*
X030021Y032559D03*
X032383Y032205D03*
X032423Y030157D03*
X032069Y028819D03*
X032187Y027677D03*
X032069Y026535D03*
X033683Y024449D03*
X034273Y025039D03*
X032226Y024016D03*
X030257Y024016D03*
X029706Y023661D03*
X028840Y023307D03*
X027935Y021890D03*
X027069Y021535D03*
X036360Y025984D03*
X036360Y028150D03*
X034667Y029134D03*
X036399Y030157D03*
X036163Y031732D03*
X038368Y032677D03*
X042226Y032677D03*
X052108Y032480D03*
X054273Y029055D03*
X052974Y027992D03*
X052029Y027638D03*
X054116Y025551D03*
X056124Y025630D03*
X056754Y025000D03*
X058092Y025984D03*
X058643Y025354D03*
X060612Y025906D03*
X061635Y026181D03*
X060100Y028031D03*
X062100Y029102D03*
X056202Y027047D03*
X057580Y022874D03*
X061517Y015394D03*
X048210Y013465D03*
X046635Y014764D03*
M02*
